<svg width="204" height="51" viewBox="0 0 204 51" fill="none" xmlns="http://www.w3.org/2000/svg">
<path d="M2.0962 26H7.68607V6.26077L6.63797 2.7671H8.03544L11.9833 26H22.8137L26.7615 2.7671H28.159L27.1109 6.26077V26H32.7007V1.36963H21.6957L18.0972 24.6025H16.6997L13.1013 1.36963H2.0962V26ZM36.2141 26H53.7872V21.1089H41.8039V16.1129H52.0404V11.2218H41.8039V6.26077H53.7872V1.36963H36.2141V26ZM77.9124 1.36963H56.2167V6.26077H64.2871V26H69.8769V6.26077H77.9124V1.36963ZM95.5396 26H101.199L94.0722 1.36963H82.5431L75.451 26H81.1107L83.3117 18.1043H93.3036L95.5396 26ZM84.6743 13.2132L87.6089 2.7671H89.0064L91.9411 13.2132H84.6743ZM103.665 26H109.255V6.26077L108.207 2.7671H109.604L113.552 26H124.383L128.33 2.7671H129.728L128.68 6.26077V26H134.27V1.36963H123.265L119.666 24.6025H118.269L114.67 1.36963H103.665V26ZM156.815 26H162.475L155.348 1.36963H143.819L136.727 26H142.386L144.587 18.1043H154.579L156.815 26ZM145.95 13.2132L148.885 2.7671H150.282L153.217 13.2132H145.95ZM167.945 26.3494L182.514 26V21.1089L170.531 21.4582V1.36963H164.941V23.4147C164.941 25.3362 166.024 26.3843 167.945 26.3494ZM188.314 26.3494L202.882 26V21.1089L190.899 21.4582V1.36963H185.309V23.4147C185.309 25.3362 186.392 26.3843 188.314 26.3494Z" fill="white"/>
<path d="M30.2102 42.6514H25.178V43.1537H27.4026V48.9753H27.9946V43.1537H30.2102V42.6514ZM33.6149 44.4454C32.6461 44.4454 32.081 44.9926 31.9016 45.7999H31.7222L31.8119 45.3514V42.3823H31.2199V48.9753H31.8119V46.9391C31.8119 45.7551 32.5026 44.9478 33.4803 44.9478C34.2607 44.9478 34.6465 45.3155 34.6465 46.2664V48.9753H35.2385V46.1946C35.2385 44.9926 34.5926 44.4454 33.6149 44.4454ZM36.3314 46.6969C36.3314 47.9797 36.9773 49.065 38.5381 49.065C39.9285 49.065 40.4308 48.1232 40.6102 47.4235H40.0182C39.8388 48.168 39.3275 48.5627 38.5381 48.5627C37.381 48.5627 36.9773 47.7644 36.9235 46.8584H40.4577V46.6072C40.4577 45.2348 39.6683 44.4454 38.4394 44.4454C37.2105 44.4454 36.3314 45.2617 36.3314 46.6969ZM36.9235 46.3561C36.9235 45.5667 37.5514 44.9478 38.4394 44.9478C39.3544 44.9478 39.8657 45.5667 39.8657 46.3561H36.9235ZM46.7966 42.6514H44.859V48.9753H46.7966C48.3035 48.9753 49.9092 48.5358 49.9092 45.8089C49.9092 43.0909 48.3035 42.6514 46.7966 42.6514ZM46.7966 48.473H45.451V43.1537H46.7966C47.9178 43.1537 49.3172 43.369 49.3172 45.8089C49.3172 48.2577 47.9178 48.473 46.7966 48.473ZM50.8291 46.6969C50.8291 47.9797 51.4749 49.065 53.0357 49.065C54.4261 49.065 54.9284 48.1232 55.1078 47.4235H54.5158C54.3364 48.168 53.8251 48.5627 53.0357 48.5627C51.8786 48.5627 51.4749 47.7644 51.4211 46.8584H54.9553V46.6072C54.9553 45.2348 54.1659 44.4454 52.937 44.4454C51.7081 44.4454 50.8291 45.2617 50.8291 46.6969ZM51.4211 46.3561C51.4211 45.5667 52.049 44.9478 52.937 44.9478C53.852 44.9478 54.3633 45.5667 54.3633 46.3561H51.4211ZM56.0237 46.7508C56.0237 47.9976 56.813 49.065 58.2572 49.065C59.0466 49.065 60.141 48.6165 60.2665 47.3248H59.6655C59.522 48.2667 58.921 48.5627 58.2572 48.5627C57.127 48.5627 56.6157 47.7195 56.6157 46.7508C56.6157 45.7909 57.127 44.9478 58.2572 44.9478C58.921 44.9478 59.522 45.2438 59.6655 46.1856H60.2665C60.141 44.8939 59.0466 44.4454 58.2572 44.4454C56.813 44.4454 56.0237 45.5129 56.0237 46.7508ZM61.1832 46.6969C61.1832 47.9797 61.8291 49.065 63.3899 49.065C64.7803 49.065 65.2826 48.1232 65.462 47.4235H64.87C64.6906 48.168 64.1793 48.5627 63.3899 48.5627C62.2327 48.5627 61.8291 47.7644 61.7753 46.8584H65.3095V46.6072C65.3095 45.2348 64.5201 44.4454 63.2912 44.4454C62.0623 44.4454 61.1832 45.2617 61.1832 46.6969ZM61.7753 46.3561C61.7753 45.5667 62.4032 44.9478 63.2912 44.9478C64.2062 44.9478 64.7175 45.5667 64.7175 46.3561H61.7753ZM68.8177 44.9478C69.5981 44.9478 69.9838 45.3155 69.9838 46.2664V48.9753H70.5759V46.1946C70.5759 44.9926 69.93 44.4454 68.9523 44.4454C67.9835 44.4454 67.4184 44.9926 67.239 45.7999H67.0596L67.1493 45.3514V44.5351H66.5573V48.9753H67.1493V46.9391C67.1493 45.7551 67.84 44.9478 68.8177 44.9478ZM72.864 48.5717V45.0375H74.2364V44.5351H72.864V43.1448L72.2719 43.3242V44.5351H71.3121V45.0375H72.2719V48.482C72.2719 48.8856 72.4513 49.092 72.855 49.065L74.4158 48.9753V48.473L72.864 48.5717ZM75.5099 48.9753H76.1019V44.9478L78.47 45.0375V44.5351L76.0929 44.4454C75.6893 44.4275 75.5099 44.6248 75.5099 45.0285V48.9753ZM79.2023 47.7375C79.2023 48.2039 79.3817 49.065 80.6555 49.065C81.696 49.065 82.1804 48.4282 82.3508 47.7644H82.5302L82.4405 48.2129V48.482C82.4405 48.7959 82.6199 48.9753 82.9339 48.9753H83.6874V48.473H83.0326V46.4458C83.0326 45.3155 82.3598 44.4454 81.113 44.4454C79.8482 44.4454 79.2023 45.2976 79.2023 46.1767H79.7944C79.7944 45.2527 80.4492 44.9478 81.113 44.9478C81.9113 44.9478 82.3867 45.3873 82.4405 46.2933L80.5927 46.4637C79.615 46.5534 79.2023 47.0468 79.2023 47.7375ZM79.7944 47.6836C79.7944 47.2082 80.0904 47.0199 80.6824 46.966L82.4405 46.7956C82.4405 47.7913 81.7678 48.5627 80.7093 48.5627C80.1352 48.5627 79.7944 48.2488 79.7944 47.6836ZM84.3335 48.9753H87.4192V48.473H86.1724V42.8757C86.1724 42.472 85.993 42.2477 85.5893 42.2926L84.6923 42.3823V42.8846L85.5804 42.7949V48.473H84.3335V48.9753ZM89.6508 43.7727C89.9827 43.7727 90.2608 43.4946 90.2608 43.1627C90.2608 42.8398 89.9827 42.5617 89.6508 42.5617C89.3189 42.5617 89.0498 42.8398 89.0498 43.1627C89.0498 43.4946 89.3189 43.7727 89.6508 43.7727ZM88.2425 48.9753H91.2924V48.473H90.0455V44.9388C90.0455 44.6248 89.902 44.4095 89.4984 44.4454L88.6013 44.5351V45.0375L89.4894 44.9478V48.473H88.2425V48.9753ZM92.1144 48.9753H96.124V48.473H92.7423L92.2938 48.5627V48.3833L96.124 45.6654V44.5351H92.1144V45.0375H95.4961L95.9446 44.9478V45.1272L92.1144 47.8451V48.9753ZM97.0375 46.6969C97.0375 47.9797 97.6833 49.065 99.2441 49.065C100.634 49.065 101.137 48.1232 101.316 47.4235H100.724C100.545 48.168 100.033 48.5627 99.2441 48.5627C98.087 48.5627 97.6833 47.7644 97.6295 46.8584H101.164V46.6072C101.164 45.2348 100.374 44.4454 99.1454 44.4454C97.9165 44.4454 97.0375 45.2617 97.0375 46.6969ZM97.6295 46.3561C97.6295 45.5667 98.2574 44.9478 99.1454 44.9478C100.06 44.9478 100.572 45.5667 100.572 46.3561H97.6295ZM106.879 48.9753V42.3823H106.287V45.2617L106.376 45.7102H106.197C106.017 44.9926 105.381 44.4454 104.385 44.4454C103.093 44.4454 102.232 45.4232 102.232 46.7508C102.232 48.0873 103.093 49.065 104.385 49.065C105.381 49.065 106.017 48.5179 106.197 47.8003H106.376L106.287 48.2488V48.9753H106.879ZM106.287 46.7508C106.287 48.0245 105.461 48.5627 104.51 48.5627C103.56 48.5627 102.824 48.0245 102.824 46.7508C102.824 45.486 103.56 44.9478 104.51 44.9478C105.461 44.9478 106.287 45.486 106.287 46.7508ZM111.312 48.9753H111.904V43.2793L111.814 42.8308H111.993L113.967 48.9753H115.187L117.16 42.8308H117.339L117.25 43.2793V48.9753H117.842V42.6514H116.64L114.666 48.7959H114.487L112.514 42.6514H111.312V48.9753ZM118.937 46.6969C118.937 47.9797 119.583 49.065 121.144 49.065C122.534 49.065 123.037 48.1232 123.216 47.4235H122.624C122.444 48.168 121.933 48.5627 121.144 48.5627C119.987 48.5627 119.583 47.7644 119.529 46.8584H123.063V46.6072C123.063 45.2348 122.274 44.4454 121.045 44.4454C119.816 44.4454 118.937 45.2617 118.937 46.6969ZM119.529 46.3561C119.529 45.5667 120.157 44.9478 121.045 44.9478C121.96 44.9478 122.471 45.5667 122.471 46.3561H119.529ZM125.231 48.5717V45.0375H126.603V44.5351H125.231V43.1448L124.639 43.3242V44.5351H123.679V45.0375H124.639V48.482C124.639 48.8856 124.818 49.092 125.222 49.065L126.782 48.9753V48.473L125.231 48.5717ZM127.697 47.7375C127.697 48.2039 127.876 49.065 129.15 49.065C130.191 49.065 130.675 48.4282 130.846 47.7644H131.025L130.935 48.2129V48.482C130.935 48.7959 131.115 48.9753 131.429 48.9753H132.182V48.473H131.527V46.4458C131.527 45.3155 130.855 44.4454 129.608 44.4454C128.343 44.4454 127.697 45.2976 127.697 46.1767H128.289C128.289 45.2527 128.944 44.9478 129.608 44.9478C130.406 44.9478 130.881 45.3873 130.935 46.2933L129.087 46.4637C128.11 46.5534 127.697 47.0468 127.697 47.7375ZM128.289 47.6836C128.289 47.2082 128.585 47.0199 129.177 46.966L130.935 46.7956C130.935 47.7913 130.263 48.5627 129.204 48.5627C128.63 48.5627 128.289 48.2488 128.289 47.6836ZM135.958 44.5351L134.505 48.7959H134.326L132.864 44.5351H132.29L133.815 48.9753H135.017L136.533 44.5351H135.958ZM137.096 46.6969C137.096 47.9797 137.742 49.065 139.303 49.065C140.693 49.065 141.196 48.1232 141.375 47.4235H140.783C140.604 48.168 140.092 48.5627 139.303 48.5627C138.146 48.5627 137.742 47.7644 137.688 46.8584H141.223V46.6072C141.223 45.2348 140.433 44.4454 139.204 44.4454C137.976 44.4454 137.096 45.2617 137.096 46.6969ZM137.688 46.3561C137.688 45.5667 138.316 44.9478 139.204 44.9478C140.119 44.9478 140.631 45.5667 140.631 46.3561H137.688ZM142.47 48.9753H143.062V44.9478L145.431 45.0375V44.5351L143.053 44.4454C142.65 44.4275 142.47 44.6248 142.47 45.0285V48.9753ZM149.724 47.8361C149.724 46.8763 148.746 46.679 147.867 46.3919C147.15 46.1587 146.872 46.0242 146.872 45.5577C146.872 45.1092 147.302 44.9478 147.831 44.9478C148.585 44.9478 148.98 45.2527 148.98 45.9076H149.572C149.572 45.2079 149.186 44.4454 147.831 44.4454C146.854 44.4454 146.28 44.9119 146.28 45.5936C146.28 46.365 146.889 46.6341 147.733 46.8943C148.459 47.1185 149.132 47.2262 149.132 47.881C149.132 48.3833 148.791 48.5627 148.038 48.5627C147.15 48.5627 146.665 48.1949 146.665 47.3338H146.073C146.073 48.3923 146.638 49.065 148.038 49.065C149.329 49.065 149.724 48.491 149.724 47.8361ZM150.552 46.6969C150.552 47.9797 151.197 49.065 152.758 49.065C154.149 49.065 154.651 48.1232 154.83 47.4235H154.238C154.059 48.168 153.548 48.5627 152.758 48.5627C151.601 48.5627 151.197 47.7644 151.144 46.8584H154.678V46.6072C154.678 45.2348 153.888 44.4454 152.66 44.4454C151.431 44.4454 150.552 45.2617 150.552 46.6969ZM151.144 46.3561C151.144 45.5667 151.772 44.9478 152.66 44.9478C153.575 44.9478 154.086 45.5667 154.086 46.3561H151.144ZM159.079 48.9753H159.671V43.2793L159.582 42.8308H159.761L161.734 48.9753H162.954L164.928 42.8308H165.107L165.017 43.2793V48.9753H165.609V42.6514H164.407L162.434 48.7959H162.255L160.281 42.6514H159.079V48.9753ZM166.792 47.7375C166.792 48.2039 166.972 49.065 168.246 49.065C169.286 49.065 169.771 48.4282 169.941 47.7644H170.12L170.031 48.2129V48.482C170.031 48.7959 170.21 48.9753 170.524 48.9753H171.278V48.473H170.623V46.4458C170.623 45.3155 169.95 44.4454 168.703 44.4454C167.438 44.4454 166.792 45.2976 166.792 46.1767H167.384C167.384 45.2527 168.039 44.9478 168.703 44.9478C169.501 44.9478 169.977 45.3873 170.031 46.2933L168.183 46.4637C167.205 46.5534 166.792 47.0468 166.792 47.7375ZM167.384 47.6836C167.384 47.2082 167.68 47.0199 168.273 46.966L170.031 46.7956C170.031 47.7913 169.358 48.5627 168.299 48.5627C167.725 48.5627 167.384 48.2488 167.384 47.6836ZM171.924 48.9753H175.009V48.473H173.763V42.8757C173.763 42.472 173.583 42.2477 173.179 42.2926L172.282 42.3823V42.8846L173.17 42.7949V48.473H171.924V48.9753ZM175.743 48.9753H178.829V48.473H177.582V42.8757C177.582 42.472 177.402 42.2477 176.999 42.2926L176.102 42.3823V42.8846L176.99 42.7949V48.473H175.743V48.9753Z" fill="white"/>
</svg>
