<svg xmlns="http://www.w3.org/2000/svg" xmlns:xlink="http://www.w3.org/1999/xlink" width="880" height="521" fill="none" xmlns:v="https://vecta.io/nano"><g filter="url(#A)"><rect width="880" height="521" rx="20" fill="#fff" fill-opacity=".07" shape-rendering="crispEdges"/><rect x=".3" y=".3" width="879.4" height="520.4" rx="19.7" stroke="#fff" stroke-width=".6" shape-rendering="crispEdges"/></g><g fill="#fff"><circle cx="66" cy="417" r="16"/><path d="M43.672 464.36c1.44-.78 2.796-2.196 2.796-4.596 0-2.58-1.752-4.344-4.428-4.344-2.688 0-4.44 1.884-4.44 4.344 0 2.592 1.752 4.236 3.744 4.236 1.14 0 1.692-.252 2.124-.612l.264.432c-1.296.732-3.036.84-4.248.96l.156 1.56c3-.432 5.028-.516 8.34-.06v-1.68c-1.908-.252-3.096-.336-4.308-.24zm-1.632-1.92c-1.596 0-2.52-1.044-2.52-2.676 0-1.62.924-2.664 2.52-2.664s2.508 1.044 2.508 2.664c0 1.632-.912 2.676-2.508 2.676zm12.84-1.548h-.924v-1.872h-1.92v1.872H49.3l-1.2.36v-.48c3-.624 4.704-2.436 4.836-5.232h-1.92c-.144 2.004-1.38 3.228-3.396 3.54v3.492h4.416V464h1.92v-1.428h.924v-1.68zm4.327-1.476h1.92c0-1.62.648-2.316 2.1-2.316 1.092 0 1.452.54 1.452 1.08 0 1.872-4.488 2.34-5.352 2.46V464h7.272v-1.68h-5.592l-1.2.36v-.48c3.96-.732 6.792-1.092 6.792-3.936 0-1.848-1.392-2.844-3.396-2.844-2.22 0-3.996 1.152-3.996 3.996zm12.435-3.996c-2.568 0-4.08 1.764-4.08 4.344 0 2.592 1.512 4.356 4.08 4.356 2.556 0 4.068-1.764 4.068-4.356 0-2.58-1.512-4.344-4.068-4.344zm0 1.68c.468 0 .876.108 1.2.324l-3.228 3.444a4.35 4.35 0 0 1-.132-1.104c0-1.74.804-2.664 2.16-2.664zm0 5.34c-.468 0-.876-.108-1.212-.336l3.228-3.444a4.42 4.42 0 0 1 .132 1.104c0 1.752-.792 2.676-2.148 2.676zm5.026-3.024h1.92c0-1.62.648-2.316 2.1-2.316 1.092 0 1.452.54 1.452 1.08 0 1.872-4.488 2.34-5.352 2.46V464h7.272v-1.68h-5.592l-1.2.36v-.48c3.96-.732 6.792-1.092 6.792-3.936 0-1.848-1.392-2.844-3.396-2.844-2.22 0-3.996 1.152-3.996 3.996zm8.236-.516l.672 1.74c2.604-.804 3.024-2.436 3.168-4.62h.48l-.36 1.08v6.9h1.92v-8.46h-3.732c0 1.932-.588 2.748-2.148 3.36z"/></g><path stroke="url(#B)" d="M66.5 113v292"/><g fill="#fff"><circle cx="67" cy="367" r="5"/><path d="M91.876 362h.984v-7.476l-.156-.708h.276L95.404 362h1.98l2.424-8.184h.288l-.168.708V362h.984v-8.46h-1.968l-2.412 8.184h-.276l-2.4-8.184h-1.98V362zm10.652 0h5.244v-.84h-4.26v-2.976h3.66v-.84h-3.66v-2.964h4.26v-.84h-5.244V362zm13.254-8.46h-6.852v.84h2.952V362h.972v-7.62h2.928v-.84zm5.895 8.46h.972l-2.724-8.46h-2.016l-2.736 8.46h.984l1.056-3.312h3.396l1.068 3.312zm-4.188-4.152l1.284-4.032h.276l1.296 4.032h-2.856zm4.528-4.308l2.736 8.46h2.016l2.724-8.46h-.972l-2.628 8.184h-.276l-2.616-8.184h-.984zm8.531 8.46h5.244v-.84h-4.26v-2.976h3.66v-.84h-3.66v-2.964h4.26v-.84h-5.244V362zm6.644 0h.984v-3.396h4.248V362h.984v-3.18c0-.444-.192-.636-.672-.636h-1.008v-.288c.912-.156 1.572-.72 1.572-1.992 0-1.896-1.284-2.364-3.3-2.364h-2.808V362zm.984-4.236v-3.384H140c1.44 0 2.316.132 2.316 1.692 0 1.548-.876 1.692-2.316 1.692h-1.824zm13.565 2.1c0-1.764-1.92-2.22-3.576-2.736-1.392-.432-2.136-.756-2.136-1.644 0-.936.852-1.224 2.016-1.224 1.296 0 2.364.624 2.364 2.064h.984c0-1.38-.852-2.904-3.348-2.904-2.088 0-3 .792-3 2.088 0 1.5 1.212 1.956 2.88 2.46 1.344.396 2.832.66 2.832 1.944 0 1.02-.828 1.368-2.268 1.368-1.776 0-2.844-.444-2.844-2.448h-.984c0 1.98.876 3.288 3.828 3.288 2.496 0 3.252-.996 3.252-2.256zm1.365 2.136h5.244v-.84h-4.26v-2.976h3.66v-.84h-3.66v-2.964h4.26v-.84h-5.244V362zm-61.35 11.764c0 2.472 1.476 4.356 3.96 4.356 2.16 0 3.576-1.296 3.828-3.396h-.984c-.192 1.62-1.188 2.556-2.844 2.556-1.968 0-2.976-1.464-2.976-3.516 0-2.04 1.008-3.504 2.976-3.504 1.656 0 2.652.924 2.844 2.544h.984c-.252-2.088-1.668-3.384-3.828-3.384-2.484 0-3.96 1.884-3.96 4.344zm9.035 0c0 2.472 1.464 4.356 3.96 4.356 2.472 0 3.936-1.884 3.936-4.356 0-2.46-1.464-4.344-3.936-4.344-2.496 0-3.96 1.884-3.96 4.344zm.984 0c0-2.016.972-3.504 2.976-3.504 1.992 0 2.952 1.488 2.952 3.504 0 2.028-.96 3.516-2.952 3.516-2.004 0-2.976-1.488-2.976-3.516zm8.312 4.236h.984v-7.476l-.156-.708h.276l4.212 8.184h1.98v-8.46h-.972v7.476l.156.708h-.276l-4.224-8.184h-1.98V378zm8.669-4.236c0 2.472 1.476 4.356 3.96 4.356 2.16 0 3.576-1.296 3.828-3.396h-.984c-.192 1.62-1.188 2.556-2.844 2.556-1.968 0-2.976-1.464-2.976-3.516 0-2.04 1.008-3.504 2.976-3.504 1.656 0 2.652.924 2.844 2.544h.984c-.252-2.088-1.668-3.384-3.828-3.384-2.484 0-3.96 1.884-3.96 4.344zm9.19 4.236h5.244v-.84h-4.26v-2.976h3.66v-.84h-3.66v-2.964h4.26v-.84h-5.244V378zm9.021-8.46h-2.376V378h.984v-2.916h1.392c2.136 0 3.492-.564 3.492-2.784 0-2.208-1.356-2.76-3.492-2.76zm.012 4.704h-1.404v-3.864h1.404c1.44 0 2.496.264 2.496 1.92 0 1.68-1.056 1.944-2.496 1.944zm10.889-4.704h-6.852v.84h2.952V378h.972v-7.62h2.928v-.84zm1.166 5.316c0 2.112 1.044 3.264 3.348 3.264 2.316 0 3.36-1.152 3.36-3.264v-5.316h-.984v5.16c0 1.716-.612 2.58-2.376 2.58s-2.364-.864-2.364-2.58v-5.16h-.984v5.316zm13.94 3.144h.972l-2.724-8.46h-2.016L156.47 378h.984l1.056-3.312h3.396l1.068 3.312zm-4.188-4.152l1.284-4.032h.276l1.296 4.032h-2.856zm7.064 4.272l4.512-.12v-.84l-4.26.12v-7.74h-.984v7.86c0 .456.264.732.732.72zm10.428-7.74v-.84h-4.764v.84h1.896v6.78h-1.896v.84h4.764v-.84h-1.884v-6.78h1.884zm1.374 7.62h6.552v-.84h-5.592l-.672.156v-.276l6.264-5.604v-1.896h-6.552v.84h5.592l.672-.156v.276l-6.264 5.604V378zm14.092 0h.972l-2.724-8.46h-2.016L185.24 378h.984l1.056-3.312h3.396l1.068 3.312zm-4.188-4.152l1.284-4.032h.276l1.296 4.032h-2.856zm11.382-4.308h-6.852v.84h2.952V378h.972v-7.62h2.928v-.84zm6.051.84v-.84h-4.764v.84h1.896v6.78h-1.896v.84h4.764v-.84h-1.884v-6.78h1.884zm.58 3.384c0 2.472 1.464 4.356 3.96 4.356 2.472 0 3.936-1.884 3.936-4.356 0-2.46-1.464-4.344-3.936-4.344-2.496 0-3.96 1.884-3.96 4.344zm.984 0c0-2.016.972-3.504 2.976-3.504 1.992 0 2.952 1.488 2.952 3.504 0 2.028-.96 3.516-2.952 3.516-2.004 0-2.976-1.488-2.976-3.516zm8.311 4.236h.984v-7.476l-.156-.708h.276L220.18 378h1.98v-8.46h-.972v7.476l.156.708h-.276l-4.224-8.184h-1.98V378z"/><circle cx="67" cy="319" r="5"/><path d="M98.596 311.864c0-1.764-1.92-2.22-3.576-2.736-1.392-.432-2.136-.756-2.136-1.644 0-.936.852-1.224 2.016-1.224 1.296 0 2.364.624 2.364 2.064h.984c0-1.38-.852-2.904-3.348-2.904-2.088 0-3 .792-3 2.088 0 1.5 1.212 1.956 2.88 2.46 1.344.396 2.832.66 2.832 1.944 0 1.02-.828 1.368-2.268 1.368-1.776 0-2.844-.444-2.844-2.448h-.984c0 1.98.876 3.288 3.828 3.288 2.496 0 3.252-.996 3.252-2.256zM99.962 314h5.244v-.84h-4.26v-2.976h3.66v-.84h-3.66v-2.964h4.26v-.84h-5.244V314zm6.644 0h5.244v-.84h-4.26v-2.976h3.66v-.84h-3.66v-2.964h4.26v-.84h-5.244V314zm9.333-8.46h-2.688V314h2.688c2.052 0 4.236-.588 4.236-4.236 0-3.636-2.184-4.224-4.236-4.224zm0 7.62h-1.704v-6.78h1.704c1.5 0 3.252.264 3.252 3.384 0 3.132-1.752 3.396-3.252 3.396zm9.851.84h.984v-3.396l3.996-.24v-.852l-3.996.24v-3.372h4.56v-.84h-5.544V314zm6.815-3.144c0 2.112 1.044 3.264 3.348 3.264 2.316 0 3.36-1.152 3.36-3.264v-5.316h-.984v5.16c0 1.716-.612 2.58-2.376 2.58s-2.364-.864-2.364-2.58v-5.16h-.984v5.316zm8.197 3.144h.984v-7.476l-.156-.708h.276l4.212 8.184h1.98v-8.46h-.972v7.476l.156.708h-.276l-4.224-8.184h-1.98V314zm11.606-8.46h-2.688V314h2.688c2.052 0 4.236-.588 4.236-4.236 0-3.636-2.184-4.224-4.236-4.224zm0 7.62h-1.704v-6.78h1.704c1.5 0 3.252.264 3.252 3.384 0 3.132-1.752 3.396-3.252 3.396zm9.585-6.78v-.84h-4.764v.84h1.896v6.78h-1.896v.84h4.764v-.84h-1.884v-6.78h1.884zm1.496 7.62h.984v-7.476l-.156-.708h.276l4.212 8.184h1.98v-8.46h-.972v7.476l.156.708h-.276l-4.224-8.184h-1.98V314zm8.669-4.236c0 2.496 1.224 4.356 3.708 4.356 2.184 0 3.324-1.404 3.336-4.356h.276l-.156 1.08V314h.984v-3.852c0-.444-.228-.66-.72-.66h-4.176v.792h2.892c.036 2.028-.756 3-2.424 3-1.98 0-2.736-1.44-2.736-3.516 0-2.064 1.032-3.504 3.012-3.504 1.668 0 2.376.912 2.568 2.304h.984c-.252-1.848-1.428-3.144-3.552-3.144-2.448 0-3.996 1.86-3.996 4.344zM91.876 330h.984v-3.396h4.248V330h.984v-3.18c0-.444-.192-.636-.672-.636h-1.008v-.288c.912-.156 1.572-.72 1.572-1.992 0-1.896-1.284-2.364-3.3-2.364h-2.808V330zm.984-4.236v-3.384h1.824c1.44 0 2.316.132 2.316 1.692 0 1.548-.876 1.692-2.316 1.692H92.86zm6.584 0c0 2.472 1.465 4.356 3.96 4.356 2.472 0 3.936-1.884 3.936-4.356 0-2.46-1.464-4.344-3.936-4.344-2.496 0-3.96 1.884-3.96 4.344zm.984 0c0-2.016.972-3.504 2.976-3.504 1.992 0 2.952 1.488 2.952 3.504 0 2.028-.96 3.516-2.952 3.516-2.004 0-2.976-1.488-2.976-3.516zm8.282 1.092c0 2.112 1.044 3.264 3.348 3.264 2.316 0 3.36-1.152 3.36-3.264v-5.316h-.984v5.16c0 1.716-.612 2.58-2.376 2.58s-2.364-.864-2.364-2.58v-5.16h-.984v5.316zm8.197 3.144h.984v-7.476l-.156-.708h.276l4.212 8.184h1.98v-8.46h-.972v7.476l.156.708h-.276l-4.224-8.184h-1.98V330zm11.606-8.46h-2.688V330h2.688c2.052 0 4.236-.588 4.236-4.236 0-3.636-2.184-4.224-4.236-4.224zm0 7.62h-1.704v-6.78h1.704c1.5 0 3.252.264 3.252 3.384 0 3.132-1.752 3.396-3.252 3.396z"/><circle cx="67" cy="271" r="5"/><path d="M91.876 266h.984v-7.476l-.156-.708h.276L95.404 266h1.98l2.424-8.184h.288l-.168.708V266h.984v-8.46h-1.968l-2.412 8.184h-.276l-2.4-8.184h-1.98V266zm16.7 0h.972l-2.724-8.46h-2.016l-2.736 8.46h.984l1.056-3.312h3.396l1.068 3.312zm-4.188-4.152l1.284-4.032h.276l1.296 4.032h-2.856zm7.064 4.272l4.512-.12v-.84l-4.26.12v-7.74h-.984v7.86c0 .456.264.732.732.72zm6.515 0l4.512-.12v-.84l-4.26.12v-7.74h-.984v7.86c0 .456.264.732.732.72zm16.26-8.58h-6.852v.84h2.952V266h.972v-7.62h2.928v-.84zm.15 4.224c0 2.472 1.464 4.356 3.96 4.356 2.472 0 3.936-1.884 3.936-4.356 0-2.46-1.464-4.344-3.936-4.344-2.496 0-3.96 1.884-3.96 4.344zm.984 0c0-2.016.972-3.504 2.976-3.504 1.992 0 2.952 1.488 2.952 3.504 0 2.028-.96 3.516-2.952 3.516-2.004 0-2.976-1.488-2.976-3.516zm15.08-4.224h-1.416l-4.368 3.6v-3.6h-.984V266h.984v-3.6l4.368 3.6h1.416l-5.16-4.236 5.16-4.224zm1.142 8.46h5.244v-.84h-4.26v-2.976h3.66v-.84h-3.66v-2.964h4.26v-.84h-5.244V266zm6.645 0h.984v-7.476l-.156-.708h.276l4.212 8.184h1.98v-8.46h-.972v7.476l.156.708h-.276l-4.224-8.184h-1.98V266zm-63.664 7.54h-2.688V282h2.688c2.052 0 4.236-.588 4.236-4.236 0-3.636-2.184-4.224-4.236-4.224zm0 7.62H92.86v-6.78h1.704c1.5 0 3.252.264 3.252 3.384 0 3.132-1.752 3.396-3.252 3.396zm5.632.84h5.244v-.84h-4.26v-2.976h3.66v-.84h-3.66v-2.964h4.26v-.84h-5.244V282zm6.282-8.46l2.736 8.46h2.016l2.724-8.46h-.972l-2.628 8.184h-.276l-2.616-8.184h-.984zm8.531 8.46h5.244v-.84h-4.26v-2.976h3.66v-.84h-3.66v-2.964h4.26v-.84h-5.244V282zm7.376.12l4.512-.12v-.84l-4.26.12v-7.74h-.984v7.86c0 .456.264.732.732.72zm4.703-4.356c0 2.472 1.464 4.356 3.96 4.356 2.472 0 3.936-1.884 3.936-4.356 0-2.46-1.464-4.344-3.936-4.344-2.496 0-3.96 1.884-3.96 4.344zm.984 0c0-2.016.972-3.504 2.976-3.504 1.992 0 2.952 1.488 2.952 3.504 0 2.028-.96 3.516-2.952 3.516-2.004 0-2.976-1.488-2.976-3.516zm10.688-4.224h-2.376V282h.984v-2.916h1.392c2.136 0 3.492-.564 3.492-2.784 0-2.208-1.356-2.76-3.492-2.76zm.012 4.704h-1.404v-3.864h1.404c1.44 0 2.496.264 2.496 1.92 0 1.68-1.056 1.944-2.496 1.944zm4.76 3.756h.984v-7.476l-.156-.708h.276L147.06 282h1.98l2.424-8.184h.288l-.168.708V282h.984v-8.46H150.6l-2.412 8.184h-.276l-2.4-8.184h-1.98V282zm10.653 0h5.244v-.84h-4.26v-2.976h3.66v-.84h-3.66v-2.964h4.26v-.84h-5.244V282zm6.644 0h.984v-7.476l-.156-.708h.276l4.212 8.184h1.98v-8.46h-.972v7.476l.156.708h-.276l-4.224-8.184h-1.98V282zm15.316-8.46h-6.852v.84h2.952V282h.972v-7.62h2.928v-.84z"/><circle cx="67" cy="223" r="5"/><path d="M98.596 215.864c0-1.764-1.92-2.22-3.576-2.736-1.392-.432-2.136-.756-2.136-1.644 0-.936.852-1.224 2.016-1.224 1.296 0 2.364.624 2.364 2.064h.984c0-1.38-.852-2.904-3.348-2.904-2.088 0-3 .792-3 2.088 0 1.5 1.212 1.956 2.88 2.46 1.344.396 2.832.66 2.832 1.944 0 1.02-.828 1.368-2.268 1.368-1.776 0-2.844-.444-2.844-2.448h-.984c0 1.98.876 3.288 3.828 3.288 2.496 0 3.252-.996 3.252-2.256zm7.038-6.324h-6.852v.84h2.952V218h.972v-7.62h2.928v-.84zm1.172 8.46h.984v-3.396h4.248V218h.984v-3.18c0-.444-.192-.636-.672-.636h-1.008v-.288c.912-.156 1.572-.72 1.572-1.992 0-1.896-1.284-2.364-3.3-2.364h-2.808V218zm.984-4.236v-3.384h1.824c1.44 0 2.316.132 2.316 1.692 0 1.548-.876 1.692-2.316 1.692h-1.824zM120.775 218h.972l-2.724-8.46h-2.016l-2.736 8.46h.984l1.056-3.312h3.396l1.068 3.312zm-4.188-4.152l1.284-4.032h.276l1.296 4.032h-2.856zm11.383-4.308h-6.852v.84h2.952V218h.972v-7.62h2.928v-.84zm1.172 8.46h5.244v-.84h-4.26v-2.976h3.66v-.84h-3.66v-2.964h4.26v-.84h-5.244V218zm6.044-4.236c0 2.496 1.224 4.356 3.708 4.356 2.184 0 3.324-1.404 3.336-4.356h.276l-.156 1.08V218h.984v-3.852c0-.444-.228-.66-.72-.66h-4.176v.792h2.892c.036 2.028-.756 3-2.424 3-1.98 0-2.736-1.44-2.736-3.516 0-2.064 1.032-3.504 3.012-3.504 1.668 0 2.376.912 2.568 2.304h.984c-.252-1.848-1.428-3.144-3.552-3.144-2.448 0-3.996 1.86-3.996 4.344zm14.186-3.384v-.84h-4.764v.84h1.896v6.78h-1.896v.84h4.764v-.84h-1.884v-6.78h1.884zm.579 3.384c0 2.472 1.476 4.356 3.96 4.356 2.16 0 3.576-1.296 3.828-3.396h-.984c-.192 1.62-1.188 2.556-2.844 2.556-1.968 0-2.976-1.464-2.976-3.516 0-2.04 1.008-3.504 2.976-3.504 1.656 0 2.652.924 2.844 2.544h.984c-.252-2.088-1.668-3.384-3.828-3.384-2.484 0-3.96 1.884-3.96 4.344zm-51.355 18.1c0-1.764-1.92-2.22-3.576-2.736-1.392-.432-2.136-.756-2.136-1.644 0-.936.852-1.224 2.016-1.224 1.296 0 2.364.624 2.364 2.064h.984c0-1.38-.852-2.904-3.348-2.904-2.088 0-3 .792-3 2.088 0 1.5 1.212 1.956 2.88 2.46 1.344.396 2.832.66 2.832 1.944 0 1.02-.828 1.368-2.268 1.368-1.776 0-2.844-.444-2.844-2.448h-.984c0 1.98.876 3.288 3.828 3.288 2.496 0 3.252-.996 3.252-2.256zm7.273 2.136h.972l-2.724-8.46h-2.016L99.365 234h.984l1.056-3.312h3.396l1.068 3.312zm-4.188-4.152l1.284-4.032h.276l1.296 4.032h-2.856zm7.064 4.272l4.512-.12v-.84l-4.26.12v-7.74h-.984v7.86c0 .456.264.732.732.72zm5.783-.12h5.244v-.84h-4.26v-2.976h3.66v-.84h-3.66v-2.964h4.26v-.84h-5.244V234zm10.746 0h.984v-3.396h4.248V234h.984v-3.18c0-.444-.192-.636-.672-.636h-1.008v-.288c.912-.156 1.572-.72 1.572-1.992 0-1.896-1.284-2.364-3.3-2.364h-2.808V234zm.984-4.236v-3.384h1.824c1.44 0 2.316.132 2.316 1.692 0 1.548-.876 1.692-2.316 1.692h-1.824zm6.584 0c0 2.472 1.464 4.356 3.96 4.356 2.472 0 3.936-1.884 3.936-4.356 0-2.46-1.464-4.344-3.936-4.344-2.496 0-3.96 1.884-3.96 4.344zm.984 0c0-2.016.972-3.504 2.976-3.504 1.992 0 2.952 1.488 2.952 3.504 0 2.028-.96 3.516-2.952 3.516-2.004 0-2.976-1.488-2.976-3.516zm8.283 1.092c0 2.112 1.044 3.264 3.348 3.264 2.316 0 3.36-1.152 3.36-3.264v-5.316h-.984v5.16c0 1.716-.612 2.58-2.376 2.58s-2.364-.864-2.364-2.58v-5.16h-.984v5.316zm8.197 3.144h.984v-7.476l-.156-.708h.276l4.212 8.184h1.98v-8.46h-.972v7.476l.156.708h-.276l-4.224-8.184h-1.98V234zm11.606-8.46h-2.688V234h2.688c2.052 0 4.236-.588 4.236-4.236 0-3.636-2.184-4.224-4.236-4.224zm0 7.62h-1.704v-6.78h1.704c1.5 0 3.252.264 3.252 3.384 0 3.132-1.752 3.396-3.252 3.396z"/><circle cx="67" cy="175" r="5"/><path d="M94.252 161.54h-2.376V170h.984v-2.916h1.392c2.136 0 3.492-.564 3.492-2.784 0-2.208-1.356-2.76-3.492-2.76zm.012 4.704H92.86v-3.864h1.404c1.44 0 2.496.264 2.496 1.92 0 1.68-1.056 1.944-2.496 1.944zm4.76 3.756h.984v-3.396h4.248V170h.984v-3.18c0-.444-.192-.636-.672-.636h-1.008v-.288c.912-.156 1.572-.72 1.572-1.992 0-1.896-1.284-2.364-3.3-2.364h-2.808V170zm.984-4.236v-3.384h1.824c1.44 0 2.316.132 2.316 1.692 0 1.548-.876 1.692-2.316 1.692h-1.824zm11.395-3.384v-.84h-4.764v.84h1.896v6.78h-1.896v.84h4.764v-.84h-1.884v-6.78h1.884zm1.157-.84l2.736 8.46h2.016l2.724-8.46h-.972l-2.628 8.184h-.276l-2.616-8.184h-.984zm13.231 8.46h.972l-2.724-8.46h-2.016l-2.736 8.46h.984l1.056-3.312h3.396l1.068 3.312zm-4.188-4.152l1.284-4.032h.276l1.296 4.032h-2.856zm11.382-4.308h-6.852v.84h2.952V170h.972v-7.62h2.928v-.84zm1.172 8.46h5.244v-.84h-4.26v-2.976h3.66v-.84h-3.66v-2.964h4.26v-.84h-5.244V170zm-35.561 13.864c0-1.764-1.92-2.22-3.576-2.736-1.392-.432-2.136-.756-2.136-1.644 0-.936.852-1.224 2.016-1.224 1.296 0 2.364.624 2.364 2.064h.984c0-1.38-.852-2.904-3.348-2.904-2.088 0-3 .792-3 2.088 0 1.5 1.212 1.956 2.88 2.46 1.344.396 2.832.66 2.832 1.944 0 1.02-.828 1.368-2.268 1.368-1.776 0-2.844-.444-2.844-2.448h-.984c0 1.98.876 3.288 3.828 3.288 2.496 0 3.252-.996 3.252-2.256zm7.273 2.136h.972l-2.724-8.46h-2.016L99.365 186h.984l1.056-3.312h3.396l1.068 3.312zm-4.188-4.152l1.284-4.032h.276l1.296 4.032h-2.856zm7.064 4.272l4.512-.12v-.84l-4.26.12v-7.74h-.984v7.86c0 .456.264.732.732.72zm5.783-.12h5.244v-.84h-4.26v-2.976h3.66v-.84h-3.66v-2.964h4.26v-.84h-5.244V186zm10.746 0h.984v-3.396h4.248V186h.984v-3.18c0-.444-.192-.636-.672-.636h-1.008v-.288c.912-.156 1.572-.72 1.572-1.992 0-1.896-1.284-2.364-3.3-2.364h-2.808V186zm.984-4.236v-3.384h1.824c1.44 0 2.316.132 2.316 1.692 0 1.548-.876 1.692-2.316 1.692h-1.824zm6.584 0c0 2.472 1.464 4.356 3.96 4.356 2.472 0 3.936-1.884 3.936-4.356 0-2.46-1.464-4.344-3.936-4.344-2.496 0-3.96 1.884-3.96 4.344zm.984 0c0-2.016.972-3.504 2.976-3.504 1.992 0 2.952 1.488 2.952 3.504 0 2.028-.96 3.516-2.952 3.516-2.004 0-2.976-1.488-2.976-3.516zm8.283 1.092c0 2.112 1.044 3.264 3.348 3.264 2.316 0 3.36-1.152 3.36-3.264v-5.316h-.984v5.16c0 1.716-.612 2.58-2.376 2.58s-2.364-.864-2.364-2.58v-5.16h-.984v5.316zm8.197 3.144h.984v-7.476l-.156-.708h.276l4.212 8.184h1.98v-8.46h-.972v7.476l.156.708h-.276l-4.224-8.184h-1.98V186zm11.606-8.46h-2.688V186h2.688c2.052 0 4.236-.588 4.236-4.236 0-3.636-2.184-4.224-4.236-4.224zm0 7.62h-1.704v-6.78h1.704c1.5 0 3.252.264 3.252 3.384 0 3.132-1.752 3.396-3.252 3.396zm81.76 279.2c1.44-.78 2.796-2.196 2.796-4.596 0-2.58-1.752-4.344-4.428-4.344-2.688 0-4.44 1.884-4.44 4.344 0 2.592 1.752 4.236 3.744 4.236 1.14 0 1.692-.252 2.124-.612l.264.432c-1.296.732-3.036.84-4.248.96l.156 1.56c3-.432 5.028-.516 8.34-.06v-1.68c-1.908-.252-3.096-.336-4.308-.24zm-1.632-1.92c-1.596 0-2.52-1.044-2.52-2.676 0-1.62.924-2.664 2.52-2.664s2.508 1.044 2.508 2.664c0 1.632-.912 2.676-2.508 2.676zm5.34-3.54l.672 1.74c2.604-.804 3.024-2.436 3.168-4.62h.48l-.36 1.08v6.9h1.92v-8.46h-3.732c0 1.932-.588 2.748-2.148 3.36zm10.444.516h1.92c0-1.62.648-2.316 2.1-2.316 1.092 0 1.452.54 1.452 1.08 0 1.872-4.488 2.34-5.352 2.46V464h7.272v-1.68h-5.592l-1.2.36v-.48c3.96-.732 6.792-1.092 6.792-3.936 0-1.848-1.392-2.844-3.396-2.844-2.22 0-3.996 1.152-3.996 3.996zm12.435-3.996c-2.568 0-4.08 1.764-4.08 4.344 0 2.592 1.512 4.356 4.08 4.356 2.556 0 4.068-1.764 4.068-4.356 0-2.58-1.512-4.344-4.068-4.344zm0 1.68c.468 0 .876.108 1.2.324l-3.228 3.444a4.35 4.35 0 0 1-.132-1.104c0-1.74.804-2.664 2.16-2.664zm0 5.34c-.468 0-.876-.108-1.212-.336l3.228-3.444a4.42 4.42 0 0 1 .132 1.104c0 1.752-.792 2.676-2.148 2.676zm5.026-3.024h1.92c0-1.62.648-2.316 2.1-2.316 1.092 0 1.452.54 1.452 1.08 0 1.872-4.488 2.34-5.352 2.46V464h7.272v-1.68h-5.592l-1.2.36v-.48c3.96-.732 6.792-1.092 6.792-3.936 0-1.848-1.392-2.844-3.396-2.844-2.22 0-3.996 1.152-3.996 3.996zm8.355 0h1.92c0-1.62.648-2.316 2.1-2.316 1.092 0 1.452.54 1.452 1.08 0 1.872-4.488 2.34-5.352 2.46V464h7.272v-1.68h-5.592l-1.2.36v-.48c3.96-.732 6.792-1.092 6.792-3.936 0-1.848-1.392-2.844-3.396-2.844-2.22 0-3.996 1.152-3.996 3.996z"/></g><path stroke="url(#C)" d="M266.5 112v292"/><g fill="#fff"><circle cx="267" cy="365" r="5"/><path d="M294.252 359.54h-2.376V368h.984v-2.916h1.392c2.136 0 3.492-.564 3.492-2.784 0-2.208-1.356-2.76-3.492-2.76zm.012 4.704h-1.404v-3.864h1.404c1.44 0 2.496.264 2.496 1.92 0 1.68-1.056 1.944-2.496 1.944zm4.755.612c0 2.112 1.044 3.264 3.348 3.264 2.316 0 3.36-1.152 3.36-3.264v-5.316h-.984v5.16c0 1.716-.612 2.58-2.376 2.58s-2.364-.864-2.364-2.58v-5.16h-.984v5.316zm8.197 3.144H310c2.052 0 3.336-.54 3.336-2.244 0-1.512-1.02-2.04-2.316-2.064v-.288c.876-.06 1.692-.564 1.692-1.788 0-1.668-1.188-2.076-3.252-2.076h-2.244V368zm.984-4.824v-2.796h1.296c1.38 0 2.232.084 2.232 1.392 0 1.2-.852 1.404-2.232 1.404H308.2zm0 3.984v-3.144h1.836c1.44 0 2.316.336 2.316 1.572 0 1.332-.876 1.572-2.316 1.572H308.2zm7.236.96l4.512-.12v-.84l-4.26.12v-7.74h-.984v7.86c0 .456.264.732.732.72zm10.428-7.74v-.84H321.1v.84h1.896v6.78H321.1v.84h4.764v-.84h-1.884v-6.78h1.884zm.58 3.384c0 2.472 1.476 4.356 3.96 4.356 2.16 0 3.576-1.296 3.828-3.396h-.984c-.192 1.62-1.188 2.556-2.844 2.556-1.968 0-2.976-1.464-2.976-3.516 0-2.04 1.008-3.504 2.976-3.504 1.656 0 2.652.924 2.844 2.544h.984c-.252-2.088-1.668-3.384-3.828-3.384-2.484 0-3.96 1.884-3.96 4.344zm20.129 2.1c0-1.764-1.92-2.22-3.576-2.736-1.392-.432-2.136-.756-2.136-1.644 0-.936.852-1.224 2.016-1.224 1.296 0 2.364.624 2.364 2.064h.984c0-1.38-.852-2.904-3.348-2.904-2.088 0-3 .792-3 2.088 0 1.5 1.212 1.956 2.88 2.46 1.344.396 2.832.66 2.832 1.944 0 1.02-.828 1.368-2.268 1.368-1.776 0-2.844-.444-2.844-2.448h-.984c0 1.98.876 3.288 3.828 3.288 2.496 0 3.252-.996 3.252-2.256zm7.272 2.136h.972l-2.724-8.46h-2.016l-2.736 8.46h.984l1.056-3.312h3.396l1.068 3.312zm-4.188-4.152l1.284-4.032h.276l1.296 4.032h-2.856zm7.064 4.272l4.512-.12v-.84l-4.26.12v-7.74h-.984v7.86c0 .456.264.732.732.72zm5.784-.12h5.244v-.84h-4.26v-2.976h3.66v-.84h-3.66v-2.964h4.26v-.84h-5.244V368z"/><circle cx="267" cy="320" r="5"/><path d="M291.876 315h.984v-7.476l-.156-.708h.276l4.212 8.184h1.98v-8.46h-.972v7.476l.156.708h-.276l-4.224-8.184h-1.98V315zm8.918 0h.984v-3.396l3.996-.24v-.852l-3.996.24v-3.372h4.56v-.84h-5.544V315zm13.547-8.46h-6.852v.84h2.952V315h.972v-7.62h2.928v-.84zm5.39 8.46h.984v-7.476l-.156-.708h.276l2.424 8.184h1.98l2.424-8.184h.288l-.168.708V315h.984v-8.46h-1.968l-2.412 8.184h-.276l-2.4-8.184h-1.98V315zm16.7 0h.972l-2.724-8.46h-2.016l-2.736 8.46h.984l1.056-3.312h3.396l1.068 3.312zm-4.188-4.152l1.284-4.032h.276l1.296 4.032h-2.856zm6.332 4.152h.984v-3.396h4.248V315h.984v-3.18c0-.444-.192-.636-.672-.636h-1.008v-.288c.912-.156 1.572-.72 1.572-1.992 0-1.896-1.284-2.364-3.3-2.364h-2.808V315zm.984-4.236v-3.384h1.824c1.44 0 2.316.132 2.316 1.692 0 1.548-.876 1.692-2.316 1.692h-1.824zm13.612-4.224h-1.416l-4.368 3.6v-3.6h-.984V315h.984v-3.6l4.368 3.6h1.416l-5.16-4.236 5.16-4.224zm1.143 8.46h5.244v-.84h-4.26v-2.976h3.66v-.84h-3.66v-2.964h4.26v-.84h-5.244V315zm13.253-8.46h-6.852v.84h2.952V315h.972v-7.62h2.928v-.84zm3.548 0h-2.376V315h.984v-2.916h1.392c2.136 0 3.492-.564 3.492-2.784 0-2.208-1.356-2.76-3.492-2.76zm.012 4.704h-1.404v-3.864h1.404c1.44 0 2.496.264 2.496 1.92 0 1.68-1.056 1.944-2.496 1.944zm5.493 3.876l4.512-.12v-.84l-4.26.12v-7.74h-.984v7.86c0 .456.264.732.732.72zm11.807-.12h.972l-2.724-8.46h-2.016l-2.736 8.46h.984l1.056-3.312h3.396l1.068 3.312zm-4.188-4.152l1.284-4.032h.276l1.296 4.032h-2.856zm5.615-.084c0 2.472 1.476 4.356 3.96 4.356 2.16 0 3.576-1.296 3.828-3.396h-.984c-.192 1.62-1.188 2.556-2.844 2.556-1.968 0-2.976-1.464-2.976-3.516 0-2.04 1.008-3.504 2.976-3.504 1.656 0 2.652.924 2.844 2.544h.984c-.252-2.088-1.668-3.384-3.828-3.384-2.484 0-3.96 1.884-3.96 4.344zm9.19 4.236h5.244v-.84h-4.26v-2.976h3.66v-.84h-3.66v-2.964h4.26v-.84h-5.244V315zm-106.436 16.12l4.512-.12v-.84l-4.26.12v-7.74h-.984v7.86c0 .456.264.732.732.72zm11.808-.12h.972l-2.724-8.46h-2.016l-2.736 8.46h.984l1.056-3.312h3.396l1.068 3.312zm-4.188-4.152l1.284-4.032h.276l1.296 4.032h-2.856zm5.846 1.008c0 2.112 1.044 3.264 3.348 3.264 2.316 0 3.36-1.152 3.36-3.264v-5.316h-.984v5.16c0 1.716-.612 2.58-2.376 2.58s-2.364-.864-2.364-2.58v-5.16h-.984v5.316zm8.197 3.144h.984v-7.476l-.156-.708h.276l4.212 8.184h1.98v-8.46h-.972v7.476l.156.708h-.276l-4.224-8.184h-1.98V331zm8.669-4.236c0 2.472 1.476 4.356 3.96 4.356 2.16 0 3.576-1.296 3.828-3.396h-.984c-.192 1.62-1.188 2.556-2.844 2.556-1.968 0-2.976-1.464-2.976-3.516 0-2.04 1.008-3.504 2.976-3.504 1.656 0 2.652.924 2.844 2.544h.984c-.252-2.088-1.668-3.384-3.828-3.384-2.484 0-3.96 1.884-3.96 4.344zm15.166-4.224v3.864h-4.992v-3.864h-.984V331h.984v-3.756h4.992V331h.972v-8.46h-.972z"/><circle cx="267" cy="267" r="5"/><path d="M291.624 257.296l.312.84c2.1-.684 2.64-2.448 2.76-4.32h.288l-.168.684v7.5h.984v-8.46h-1.992c-.024 1.668-.576 3.108-2.184 3.756zm12.761 2.568c0-1.764-1.92-2.22-3.576-2.736-1.392-.432-2.136-.756-2.136-1.644 0-.936.852-1.224 2.016-1.224 1.296 0 2.364.624 2.364 2.064h.984c0-1.38-.852-2.904-3.348-2.904-2.088 0-3 .792-3 2.088 0 1.5 1.212 1.956 2.88 2.46 1.344.396 2.832.66 2.832 1.944 0 1.02-.828 1.368-2.268 1.368-1.776 0-2.844-.444-2.844-2.448h-.984c0 1.98.876 3.288 3.828 3.288 2.496 0 3.252-.996 3.252-2.256zm7.038-6.324h-6.852v.84h2.952V262h.972v-7.62h2.928v-.84zm5.391 8.46h.984v-7.476l-.156-.708h.276L322.13 262h1.98v-8.46h-.972v7.476l.156.708h-.276l-4.224-8.184h-1.98V262zm8.917 0h.984v-3.396l3.996-.24v-.852l-3.996.24v-3.372h4.56v-.84h-5.544V262zm13.547-8.46h-6.852v.84h2.952V262h.972v-7.62h2.928v-.84zM291.876 278h.984v-3.396h4.248V278h.984v-3.18c0-.444-.192-.636-.672-.636h-1.008v-.288c.912-.156 1.572-.72 1.572-1.992 0-1.896-1.284-2.364-3.3-2.364h-2.808V278zm.984-4.236v-3.384h1.824c1.44 0 2.316.132 2.316 1.692 0 1.548-.876 1.692-2.316 1.692h-1.824zm6.844 4.236h5.244v-.84h-4.26v-2.976h3.66v-.84h-3.66v-2.964h4.26v-.84h-5.244V278zm12.786 0h.972l-2.724-8.46h-2.016l-2.736 8.46h.984l1.056-3.312h3.396L312.49 278zm-4.188-4.152l1.284-4.032h.276l1.296 4.032h-2.856zm7.064 4.272l4.512-.12v-.84l-4.26.12v-7.74h-.984v7.86c0 .456.264.732.732.72zm9.768-.12h5.244v-.84h-4.26v-2.976h3.66v-.84h-3.66v-2.964h4.26v-.84h-5.244V278zm13.247-2.136c0-1.764-1.92-2.22-3.576-2.736-1.392-.432-2.136-.756-2.136-1.644 0-.936.852-1.224 2.016-1.224 1.296 0 2.364.624 2.364 2.064h.984c0-1.38-.852-2.904-3.348-2.904-2.088 0-3 .792-3 2.088 0 1.5 1.212 1.956 2.88 2.46 1.344.396 2.832.66 2.832 1.944 0 1.02-.828 1.368-2.268 1.368-1.776 0-2.844-.444-2.844-2.448h-.984c0 1.98.876 3.288 3.828 3.288 2.496 0 3.252-.996 3.252-2.256zm7.038-6.324h-6.852v.84h2.952V278h.972v-7.62h2.928v-.84zm5.895 8.46h.972l-2.724-8.46h-2.016L344.81 278h.984l1.056-3.312h3.396l1.068 3.312zm-4.188-4.152l1.284-4.032h.276l1.296 4.032h-2.856zm11.383-4.308h-6.852v.84h2.952V278h.972v-7.62h2.928v-.84zm1.172 8.46h5.244v-.84h-4.26v-2.976h3.66v-.84h-3.66v-2.964h4.26v-.84h-5.244V278zm17.466-2.136c0-1.764-1.92-2.22-3.576-2.736-1.392-.432-2.136-.756-2.136-1.644 0-.936.852-1.224 2.016-1.224 1.296 0 2.364.624 2.364 2.064h.984c0-1.38-.852-2.904-3.348-2.904-2.088 0-3 .792-3 2.088 0 1.5 1.212 1.956 2.88 2.46 1.344.396 2.832.66 2.832 1.944 0 1.02-.828 1.368-2.268 1.368-1.776 0-2.844-.444-2.844-2.448h-.984c0 1.98.876 3.288 3.828 3.288 2.496 0 3.252-.996 3.252-2.256zM384.42 278h.972l-2.724-8.46h-2.016l-2.736 8.46h.984l1.056-3.312h3.396L384.42 278zm-4.188-4.152l1.284-4.032h.276l1.296 4.032h-2.856zm7.064 4.272l4.512-.12v-.84l-4.26.12v-7.74h-.984v7.86c0 .456.264.732.732.72zm5.783-.12h5.244v-.84h-4.26v-2.976h3.66v-.84h-3.66v-2.964h4.26v-.84h-5.244V278z"/><circle cx="267" cy="214" r="5"/><path d="M294.564 200.54h-2.688V209h2.688c2.052 0 4.236-.588 4.236-4.236 0-3.636-2.184-4.224-4.236-4.224zm0 7.62h-1.704v-6.78h1.704c1.5 0 3.252.264 3.252 3.384 0 3.132-1.752 3.396-3.252 3.396zm5.632.84h5.244v-.84h-4.26v-2.976h3.66v-.84h-3.66v-2.964h4.26v-.84h-5.244V209zm6.282 0h1.128l2.592-3.648 2.604 3.648h1.116l-2.94-4.056v-.36l2.94-4.044h-1.116l-2.604 3.636-2.592-3.636h-1.128l2.94 4.044v.36l-2.94 4.056zm18.727 0h.972l-2.724-8.46h-2.016l-2.736 8.46h.984l1.056-3.312h3.396l1.068 3.312zm-4.188-4.152l1.284-4.032h.276l1.296 4.032h-2.856zm6.332 4.152h.984v-7.476l-.156-.708h.276l4.212 8.184h1.98v-8.46h-.972v7.476l.156.708h-.276l-4.224-8.184h-1.98V209zm11.606-8.46h-2.688V209h2.688c2.052 0 4.236-.588 4.236-4.236 0-3.636-2.184-4.224-4.236-4.224zm0 7.62h-1.704v-6.78h1.704c1.5 0 3.252.264 3.252 3.384 0 3.132-1.752 3.396-3.252 3.396zm12.227-7.62h-2.376V209h.984v-2.916h1.392c2.136 0 3.492-.564 3.492-2.784 0-2.208-1.356-2.76-3.492-2.76zm.012 4.704h-1.404v-3.864h1.404c1.44 0 2.496.264 2.496 1.92 0 1.68-1.056 1.944-2.496 1.944zm4.76 3.756h.984v-3.396h4.248V209h.984v-3.18c0-.444-.192-.636-.672-.636h-1.008v-.288c.912-.156 1.572-.72 1.572-1.992 0-1.896-1.284-2.364-3.3-2.364h-2.808V209zm.984-4.236v-3.384h1.824c1.44 0 2.316.132 2.316 1.692 0 1.548-.876 1.692-2.316 1.692h-1.824zm11.395-3.384v-.84h-4.764v.84h1.896v6.78h-1.896v.84h4.764v-.84h-1.884v-6.78h1.884zm1.157-.84l2.736 8.46h2.016l2.724-8.46h-.972l-2.628 8.184h-.276l-2.616-8.184h-.984zm13.23 8.46h.972l-2.724-8.46h-2.016l-2.736 8.46h.984l1.056-3.312h3.396L382.72 209zm-4.188-4.152l1.284-4.032h.276l1.296 4.032h-2.856zm11.383-4.308h-6.852v.84h2.952V209h.972v-7.62h2.928v-.84zm1.172 8.46h5.244v-.84h-4.26v-2.976h3.66v-.84h-3.66v-2.964h4.26v-.84h-5.244V209zm-99.211 16h5.244v-.84h-4.26v-2.976h3.66v-.84h-3.66v-2.964h4.26v-.84h-5.244V225zm6.282 0h1.128l2.592-3.648 2.604 3.648h1.116l-2.94-4.056v-.36l2.94-4.044h-1.116l-2.604 3.636-2.592-3.636h-1.128l2.94 4.044v.36l-2.94 4.056zm7.461-4.236c0 2.472 1.476 4.356 3.96 4.356 2.16 0 3.576-1.296 3.828-3.396h-.984c-.192 1.62-1.188 2.556-2.844 2.556-1.968 0-2.976-1.464-2.976-3.516 0-2.04 1.008-3.504 2.976-3.504 1.656 0 2.652.924 2.844 2.544h.984c-.252-2.088-1.668-3.384-3.828-3.384-2.484 0-3.96 1.884-3.96 4.344zm15.167-4.224v3.864h-4.992v-3.864h-.984V225h.984v-3.756h4.992V225h.972v-8.46h-.972zm8.637 8.46h.972l-2.724-8.46h-2.016l-2.736 8.46h.984l1.056-3.312h3.396l1.068 3.312zm-4.188-4.152l1.284-4.032h.276l1.296 4.032h-2.856zm6.332 4.152h.984v-7.476l-.156-.708h.276l4.212 8.184h1.98v-8.46h-.972v7.476l.156.708h-.276l-4.224-8.184h-1.98V225zm8.669-4.236c0 2.496 1.224 4.356 3.708 4.356 2.184 0 3.324-1.404 3.336-4.356h.276l-.156 1.08V225h.984v-3.852c0-.444-.228-.66-.72-.66h-4.176v.792h2.892c.036 2.028-.756 3-2.424 3-1.98 0-2.736-1.44-2.736-3.516 0-2.064 1.032-3.504 3.012-3.504 1.668 0 2.376.912 2.568 2.304h.984c-.252-1.848-1.428-3.144-3.552-3.144-2.448 0-3.996 1.86-3.996 4.344zm9.519 4.236h5.244v-.84h-4.26v-2.976h3.66v-.84h-3.66v-2.964h4.26v-.84h-5.244V225zm11.478.12l4.512-.12v-.84l-4.26.12v-7.74h-.984v7.86c0 .456.264.732.732.72zm10.428-7.74v-.84h-4.764v.84h1.896v6.78h-1.896v.84h4.764v-.84h-1.884v-6.78h1.884zm7.876 5.484c0-1.764-1.92-2.22-3.576-2.736-1.392-.432-2.136-.756-2.136-1.644 0-.936.852-1.224 2.016-1.224 1.296 0 2.364.624 2.364 2.064h.984c0-1.38-.852-2.904-3.348-2.904-2.088 0-3 .792-3 2.088 0 1.5 1.212 1.956 2.88 2.46 1.344.396 2.832.66 2.832 1.944 0 1.02-.828 1.368-2.268 1.368-1.776 0-2.844-.444-2.844-2.448h-.984c0 1.98.876 3.288 3.828 3.288 2.496 0 3.252-.996 3.252-2.256zm7.038-6.324h-6.852v.84h2.952V225h.972v-7.62h2.928v-.84zm6.05.84v-.84h-4.764v.84h1.896v6.78h-1.896v.84h4.764v-.84h-1.884v-6.78h1.884zm1.497 7.62h.984v-7.476l-.156-.708h.276l4.212 8.184h1.98v-8.46h-.972v7.476l.156.708h-.276l-4.224-8.184h-1.98V225zm8.669-4.236c0 2.496 1.224 4.356 3.708 4.356 2.184 0 3.324-1.404 3.336-4.356h.276l-.156 1.08V225h.984v-3.852c0-.444-.228-.66-.72-.66h-4.176v.792h2.892c.036 2.028-.756 3-2.424 3-1.98 0-2.736-1.44-2.736-3.516 0-2.064 1.032-3.504 3.012-3.504 1.668 0 2.376.912 2.568 2.304h.984c-.252-1.848-1.428-3.144-3.552-3.144-2.448 0-3.996 1.86-3.996 4.344z"/><circle cx="267" cy="416" r="16"/><path d="M432.672 464.36c1.44-.78 2.796-2.196 2.796-4.596 0-2.58-1.752-4.344-4.428-4.344-2.688 0-4.44 1.884-4.44 4.344 0 2.592 1.752 4.236 3.744 4.236 1.14 0 1.692-.252 2.124-.612l.264.432c-1.296.732-3.036.84-4.248.96l.156 1.56c3-.432 5.028-.516 8.34-.06v-1.68c-1.908-.252-3.096-.336-4.308-.24zm-1.632-1.92c-1.596 0-2.52-1.044-2.52-2.676 0-1.62.924-2.664 2.52-2.664s2.508 1.044 2.508 2.664c0 1.632-.912 2.676-2.508 2.676zm5.46-3.024h1.92c0-1.62.648-2.316 2.1-2.316 1.092 0 1.452.54 1.452 1.08 0 1.872-4.488 2.34-5.352 2.46V464h7.272v-1.68H438.3l-1.2.36v-.48c3.96-.732 6.792-1.092 6.792-3.936 0-1.848-1.392-2.844-3.396-2.844-2.22 0-3.996 1.152-3.996 3.996zm11.718 0h1.92c0-1.62.648-2.316 2.1-2.316 1.092 0 1.452.54 1.452 1.08 0 1.872-4.488 2.34-5.352 2.46V464h7.272v-1.68h-5.592l-1.2.36v-.48c3.96-.732 6.792-1.092 6.792-3.936 0-1.848-1.392-2.844-3.396-2.844-2.22 0-3.996 1.152-3.996 3.996zm12.436-3.996c-2.568 0-4.08 1.764-4.08 4.344 0 2.592 1.512 4.356 4.08 4.356 2.556 0 4.068-1.764 4.068-4.356 0-2.58-1.512-4.344-4.068-4.344zm0 1.68c.468 0 .876.108 1.2.324l-3.228 3.444a4.35 4.35 0 0 1-.132-1.104c0-1.74.804-2.664 2.16-2.664zm0 5.34c-.468 0-.876-.108-1.212-.336l3.228-3.444a4.42 4.42 0 0 1 .132 1.104c0 1.752-.792 2.676-2.148 2.676zm5.025-3.024h1.92c0-1.62.648-2.316 2.1-2.316 1.092 0 1.452.54 1.452 1.08 0 1.872-4.488 2.34-5.352 2.46V464h7.272v-1.68h-5.592l-1.2.36v-.48c3.96-.732 6.792-1.092 6.792-3.936 0-1.848-1.392-2.844-3.396-2.844-2.22 0-3.996 1.152-3.996 3.996zm8.356 0h1.92c0-1.62.648-2.316 2.1-2.316 1.092 0 1.452.54 1.452 1.08 0 1.872-4.488 2.34-5.352 2.46V464h7.272v-1.68h-5.592l-1.2.36v-.48c3.96-.732 6.792-1.092 6.792-3.936 0-1.848-1.392-2.844-3.396-2.844-2.22 0-3.996 1.152-3.996 3.996z"/></g><path stroke="url(#D)" d="M454.5 112v292"/><g fill="#fff"><circle cx="455" cy="362" r="5"/><path d="M479.756 352.764c0 2.472 1.464 4.356 3.96 4.356 2.472 0 3.936-1.884 3.936-4.356 0-2.46-1.464-4.344-3.936-4.344-2.496 0-3.96 1.884-3.96 4.344zm.984 0c0-2.016.972-3.504 2.976-3.504 1.992 0 2.952 1.488 2.952 3.504 0 2.028-.96 3.516-2.952 3.516-2.004 0-2.976-1.488-2.976-3.516zm10.688-4.224h-2.376V357h.984v-2.916h1.392c2.136 0 3.492-.564 3.492-2.784 0-2.208-1.356-2.76-3.492-2.76zm.012 4.704h-1.404v-3.864h1.404c1.44 0 2.496.264 2.496 1.92 0 1.68-1.056 1.944-2.496 1.944zM496.2 357h5.244v-.84h-4.26v-2.976h3.66v-.84h-3.66v-2.964h4.26v-.84H496.2V357zm6.645 0h.984v-7.476l-.156-.708h.276l4.212 8.184h1.98v-8.46h-.972v7.476l.156.708h-.276l-4.224-8.184h-1.98V357zm12.563-8.46l2.736 8.46h2.016l2.724-8.46h-.972l-2.628 8.184h-.276l-2.616-8.184h-.984zm8.531 8.46h.984v-3.396h4.248V357h.984v-3.18c0-.444-.192-.636-.672-.636h-1.008v-.288c.912-.156 1.572-.72 1.572-1.992 0-1.896-1.284-2.364-3.3-2.364h-2.808V357zm.984-4.236v-3.384h1.824c1.44 0 2.315.132 2.315 1.692 0 1.548-.875 1.692-2.315 1.692h-1.824zm13.657-4.224h-2.688V357h2.688c2.052 0 4.236-.588 4.236-4.236 0-3.636-2.184-4.224-4.236-4.224zm0 7.62h-1.704v-6.78h1.704c1.5 0 3.252.264 3.252 3.384 0 3.132-1.752 3.396-3.252 3.396zm5.632.84h5.244v-.84h-4.26v-2.976h3.66v-.84h-3.66v-2.964h4.26v-.84h-5.244V357zm6.282-8.46l2.736 8.46h2.016l2.724-8.46h-.972l-2.628 8.184h-.276l-2.616-8.184h-.984zm8.53 8.46h5.244v-.84h-4.26v-2.976h3.66v-.84h-3.66v-2.964h4.26v-.84h-5.244V357zm7.377.12l4.512-.12v-.84l-4.26.12v-7.74h-.984v7.86c0 .456.264.732.732.72zm4.703-4.356c0 2.472 1.464 4.356 3.96 4.356 2.472 0 3.936-1.884 3.936-4.356 0-2.46-1.464-4.344-3.936-4.344-2.496 0-3.96 1.884-3.96 4.344zm.984 0c0-2.016.972-3.504 2.976-3.504 1.992 0 2.952 1.488 2.952 3.504 0 2.028-.96 3.516-2.952 3.516-2.004 0-2.976-1.488-2.976-3.516zm10.687-4.224h-2.376V357h.984v-2.916h1.392c2.136 0 3.492-.564 3.492-2.784 0-2.208-1.356-2.76-3.492-2.76zm.012 4.704h-1.404v-3.864h1.404c1.44 0 2.496.264 2.496 1.92 0 1.68-1.056 1.944-2.496 1.944zm4.761 3.756h.984v-7.476l-.156-.708h.276l2.424 8.184h1.98l2.424-8.184h.288l-.168.708V357h.984v-8.46h-1.968l-2.412 8.184h-.276l-2.4-8.184h-1.98V357zm10.652 0h5.244v-.84h-4.26v-2.976h3.66v-.84h-3.66v-2.964h4.26v-.84H598.2V357zm6.645 0h.984v-7.476l-.156-.708h.276l4.212 8.184h1.98v-8.46h-.972v7.476l.156.708h-.276l-4.224-8.184h-1.98V357zm15.316-8.46h-6.852v.84h2.952V357h.972v-7.62h2.928v-.84zm-133.565 22.324c0-1.764-1.92-2.22-3.576-2.736-1.392-.432-2.136-.756-2.136-1.644 0-.936.852-1.224 2.016-1.224 1.296 0 2.364.624 2.364 2.064h.984c0-1.38-.852-2.904-3.348-2.904-2.088 0-3 .792-3 2.088 0 1.5 1.212 1.956 2.88 2.46 1.344.396 2.832.66 2.832 1.944 0 1.02-.828 1.368-2.268 1.368-1.776 0-2.844-.444-2.844-2.448h-.984c0 1.98.876 3.288 3.828 3.288 2.496 0 3.252-.996 3.252-2.256zm4.054-6.324h-2.688V373h2.688c2.052 0 4.236-.588 4.236-4.236 0-3.636-2.184-4.224-4.236-4.224zm0 7.62h-1.704v-6.78h1.704c1.5 0 3.252.264 3.252 3.384 0 3.132-1.752 3.396-3.252 3.396zm12.4-7.62h-1.416l-4.368 3.6v-3.6h-.984V373h.984v-3.6l4.368 3.6h1.416l-5.16-4.236 5.16-4.224zm5.267 8.46h.984v-3.396h4.248V373h.984v-3.18c0-.444-.192-.636-.672-.636h-1.008v-.288c.912-.156 1.572-.72 1.572-1.992 0-1.896-1.284-2.364-3.3-2.364h-2.808V373zm.984-4.236v-3.384h1.824c1.44 0 2.316.132 2.316 1.692 0 1.548-.876 1.692-2.316 1.692h-1.824zm6.845 4.236h5.244v-.84h-4.26v-2.976h3.66v-.84h-3.66v-2.964h4.26v-.84h-5.244V373zm7.376.12l4.512-.12v-.84l-4.26.12v-7.74h-.984v7.86c0 .456.264.732.732.72zm5.784-.12h5.244v-.84h-4.26v-2.976h3.66v-.84h-3.66v-2.964h4.26v-.84h-5.244V373zm12.785 0h.972l-2.724-8.46h-2.016l-2.736 8.46h.984l1.056-3.312h3.396l1.068 3.312zm-4.188-4.152l1.284-4.032h.276l1.296 4.032h-2.856zm12.689 2.016c0-1.764-1.92-2.22-3.576-2.736-1.392-.432-2.136-.756-2.136-1.644 0-.936.852-1.224 2.016-1.224 1.296 0 2.364.624 2.364 2.064h.984c0-1.38-.852-2.904-3.348-2.904-2.088 0-3 .792-3 2.088 0 1.5 1.212 1.956 2.88 2.46 1.344.396 2.832.66 2.832 1.944 0 1.02-.828 1.368-2.268 1.368-1.776 0-2.844-.444-2.844-2.448h-.984c0 1.98.876 3.288 3.828 3.288 2.496 0 3.252-.996 3.252-2.256zm1.366 2.136h5.244v-.84h-4.26v-2.976h3.66v-.84h-3.66v-2.964h4.26v-.84h-5.244V373z"/><circle cx="455" cy="311" r="5"/><path d="M479.876 306h.984v-7.476l-.156-.708h.276l2.424 8.184h1.98l2.424-8.184h.288l-.168.708V306h.984v-8.46h-1.968l-2.412 8.184h-.276l-2.4-8.184h-1.98V306zm10.652 0h5.244v-.84h-4.26v-2.976h3.66v-.84h-3.66v-2.964h4.26v-.84h-5.244V306zm13.254-8.46h-6.852v.84h2.952V306h.972v-7.62h2.928v-.84zm5.895 8.46h.972l-2.724-8.46h-2.016l-2.736 8.46h.984l1.056-3.312h3.396l1.068 3.312zm-4.188-4.152l1.284-4.032h.276l1.296 4.032h-2.856zm4.528-4.308l2.736 8.46h2.016l2.724-8.46h-.972l-2.628 8.184h-.276l-2.616-8.184h-.984zm8.531 8.46h5.244v-.84h-4.26v-2.976h3.66v-.84h-3.66v-2.964h4.26v-.84h-5.244V306zm6.644 0h.984v-3.396h4.248V306h.984v-3.18c0-.444-.192-.636-.672-.636h-1.008v-.288c.912-.156 1.572-.72 1.572-1.992 0-1.896-1.284-2.364-3.3-2.364h-2.808V306zm.984-4.236v-3.384H528c1.44 0 2.316.132 2.316 1.692 0 1.548-.876 1.692-2.316 1.692h-1.824zm13.565 2.1c0-1.764-1.92-2.22-3.576-2.736-1.392-.432-2.136-.756-2.136-1.644 0-.936.852-1.224 2.016-1.224 1.296 0 2.364.624 2.364 2.064h.984c0-1.38-.852-2.904-3.348-2.904-2.088 0-3 .792-3 2.088 0 1.5 1.212 1.956 2.88 2.46 1.344.396 2.832.66 2.832 1.944 0 1.02-.828 1.368-2.268 1.368-1.776 0-2.844-.444-2.844-2.448h-.984c0 1.98.876 3.288 3.828 3.288 2.496 0 3.252-.996 3.252-2.256zm1.365 2.136h5.244v-.84h-4.26v-2.976h3.66v-.84h-3.66v-2.964h4.26v-.84h-5.244V306zm-61.71 7.54l2.736 8.46h2.016l2.724-8.46h-.972l-2.628 8.184h-.276l-2.616-8.184h-.984zm8.531 8.46h.984v-3.396h4.248V322h.984v-3.18c0-.444-.192-.636-.672-.636h-1.008v-.288c.912-.156 1.572-.72 1.572-1.992 0-1.896-1.284-2.364-3.3-2.364h-2.808V322zm.984-4.236v-3.384h1.824c1.44 0 2.316.132 2.316 1.692 0 1.548-.876 1.692-2.316 1.692h-1.824zm10.849 0c0 2.496 1.224 4.356 3.708 4.356 2.184 0 3.324-1.404 3.336-4.356h.276l-.156 1.08V322h.984v-3.852c0-.444-.228-.66-.72-.66h-4.176v.792h2.892c.036 2.028-.756 3-2.424 3-1.98 0-2.736-1.44-2.736-3.516 0-2.064 1.032-3.504 3.012-3.504 1.668 0 2.376.912 2.568 2.304h.984c-.252-1.848-1.428-3.144-3.552-3.144-2.448 0-3.996 1.86-3.996 4.344zM515.572 322h.972l-2.724-8.46h-2.016l-2.736 8.46h.984l1.056-3.312h3.396l1.068 3.312zm-4.188-4.152l1.284-4.032h.276l1.296 4.032h-2.856zm6.332 4.152h.984v-7.476l-.156-.708h.276l2.424 8.184h1.98l2.424-8.184h.288l-.168.708V322h.984v-8.46h-1.968l-2.412 8.184h-.276l-2.4-8.184h-1.98V322zm15.296-7.62v-.84h-4.764v.84h1.896v6.78h-1.896v.84h4.764v-.84h-1.884v-6.78h1.884zm1.497 7.62h.984v-7.476l-.156-.708h.276l4.212 8.184h1.98v-8.46h-.972v7.476l.156.708h-.276l-4.224-8.184h-1.98V322zm8.669-4.236c0 2.496 1.224 4.356 3.708 4.356 2.184 0 3.324-1.404 3.336-4.356h.276l-.156 1.08V322h.984v-3.852c0-.444-.228-.66-.72-.66h-4.176v.792h2.892c.036 2.028-.756 3-2.424 3-1.98 0-2.736-1.44-2.736-3.516 0-2.064 1.032-3.504 3.012-3.504 1.668 0 2.376.912 2.568 2.304h.984c-.252-1.848-1.428-3.144-3.552-3.144-2.448 0-3.996 1.86-3.996 4.344zm14.621 4.356l4.512-.12v-.84l-4.26.12v-7.74h-.984v7.86c0 .456.264.732.732.72zm11.808-.12h.972l-2.724-8.46h-2.016l-2.736 8.46h.984l1.056-3.312h3.396l1.068 3.312zm-4.188-4.152l1.284-4.032h.276l1.296 4.032h-2.856zm5.846 1.008c0 2.112 1.044 3.264 3.348 3.264 2.316 0 3.36-1.152 3.36-3.264v-5.316h-.984v5.16c0 1.716-.612 2.58-2.376 2.58s-2.364-.864-2.364-2.58v-5.16h-.984v5.316zm8.197 3.144h.984v-7.476l-.156-.708h.276l4.212 8.184h1.98v-8.46h-.972v7.476l.156.708h-.276l-4.224-8.184h-1.98V322zm8.669-4.236c0 2.472 1.476 4.356 3.96 4.356 2.16 0 3.576-1.296 3.828-3.396h-.984c-.192 1.62-1.188 2.556-2.844 2.556-1.968 0-2.976-1.464-2.976-3.516 0-2.04 1.008-3.504 2.976-3.504 1.656 0 2.652.924 2.844 2.544h.984c-.252-2.088-1.668-3.384-3.828-3.384-2.484 0-3.96 1.884-3.96 4.344zm15.166-4.224v3.864h-4.992v-3.864h-.984V322h.984v-3.756h4.992V322h.972v-8.46h-.972z"/><circle cx="455" cy="260" r="5"/><path d="M482.252 246.54h-2.376V255h.984v-2.916h1.392c2.136 0 3.492-.564 3.492-2.784 0-2.208-1.356-2.76-3.492-2.76zm.012 4.704h-1.404v-3.864h1.404c1.44 0 2.496.264 2.496 1.92 0 1.68-1.056 1.944-2.496 1.944zm4.76 3.756h.984v-3.396h4.248V255h.984v-3.18c0-.444-.192-.636-.672-.636h-1.008v-.288c.912-.156 1.572-.72 1.572-1.992 0-1.896-1.284-2.364-3.3-2.364h-2.808V255zm.984-4.236v-3.384h1.824c1.44 0 2.316.132 2.316 1.692 0 1.548-.876 1.692-2.316 1.692h-1.824zm11.395-3.384v-.84h-4.764v.84h1.896v6.78h-1.896v.84h4.764v-.84h-1.884v-6.78h1.884zm1.157-.84l2.736 8.46h2.016l2.724-8.46h-.972l-2.628 8.184h-.276l-2.616-8.184h-.984zm13.231 8.46h.972l-2.724-8.46h-2.016l-2.736 8.46h.984l1.056-3.312h3.396l1.068 3.312zm-4.188-4.152l1.284-4.032h.276l1.296 4.032h-2.856zm11.382-4.308h-6.852v.84h2.952V255h.972v-7.62h2.928v-.84zm1.172 8.46h5.244v-.84h-4.26v-2.976h3.66v-.84h-3.66v-2.964h4.26v-.84h-5.244V255zm10.266-8.46l2.736 8.46h2.016l2.724-8.46h-.972l-2.628 8.184h-.276l-2.616-8.184h-.984zm8.531 8.46h.984v-3.396h4.248V255h.984v-3.18c0-.444-.192-.636-.672-.636h-1.008v-.288c.912-.156 1.572-.72 1.572-1.992 0-1.896-1.284-2.364-3.3-2.364h-2.808V255zm.984-4.236v-3.384h1.824c1.44 0 2.316.132 2.316 1.692 0 1.548-.876 1.692-2.316 1.692h-1.824zM479.876 271h5.244v-.84h-4.26v-2.976h3.66v-.84h-3.66v-2.964h4.26v-.84h-5.244V271zm6.282 0h1.128l2.592-3.648 2.604 3.648h1.116l-2.94-4.056v-.36l2.94-4.044h-1.116l-2.604 3.636-2.592-3.636h-1.128l2.94 4.044v.36l-2.94 4.056zm10.953-8.46h-2.376V271h.984v-2.916h1.392c2.136 0 3.492-.564 3.492-2.784 0-2.208-1.356-2.76-3.492-2.76zm.012 4.704h-1.404v-3.864h1.404c1.44 0 2.496.264 2.496 1.92 0 1.68-1.056 1.944-2.496 1.944zm4.761 3.756h5.244v-.84h-4.26v-2.976h3.66v-.84h-3.66v-2.964h4.26v-.84h-5.244V271zm6.644 0h.984v-3.396h4.248V271h.984v-3.18c0-.444-.192-.636-.672-.636h-1.008v-.288c.912-.156 1.572-.72 1.572-1.992 0-1.896-1.284-2.364-3.3-2.364h-2.808V271zm.984-4.236v-3.384h1.824c1.44 0 2.316.132 2.316 1.692 0 1.548-.876 1.692-2.316 1.692h-1.824zm11.395-3.384v-.84h-4.764v.84h1.896v6.78h-1.896v.84h4.764v-.84h-1.884v-6.78h1.884zm1.496 7.62h5.244v-.84h-4.26v-2.976h3.66v-.84h-3.66v-2.964h4.26v-.84h-5.244V271zm6.645 0h.984v-7.476l-.156-.708h.276l4.212 8.184h1.98v-8.46h-.972v7.476l.156.708h-.276l-4.224-8.184h-1.98V271zm8.669-4.236c0 2.472 1.476 4.356 3.96 4.356 2.16 0 3.576-1.296 3.828-3.396h-.984c-.192 1.62-1.188 2.556-2.844 2.556-1.968 0-2.976-1.464-2.976-3.516 0-2.04 1.008-3.504 2.976-3.504 1.656 0 2.652.924 2.844 2.544h.984c-.252-2.088-1.668-3.384-3.828-3.384-2.484 0-3.96 1.884-3.96 4.344zm9.19 4.236h5.244v-.84h-4.26v-2.976h3.66v-.84h-3.66v-2.964h4.26v-.84h-5.244V271zm11.478.12l4.512-.12v-.84l-4.26.12v-7.74h-.984v7.86c0 .456.264.732.732.72zm11.808-.12h.972l-2.724-8.46h-2.016l-2.736 8.46h.984l1.056-3.312h3.396l1.068 3.312zm-4.188-4.152l1.284-4.032h.276l1.296 4.032h-2.856zm5.846 1.008c0 2.112 1.044 3.264 3.348 3.264 2.316 0 3.36-1.152 3.36-3.264v-5.316h-.984v5.16c0 1.716-.612 2.58-2.376 2.58s-2.364-.864-2.364-2.58v-5.16h-.984v5.316zm8.197 3.144h.984v-7.476l-.156-.708h.276l4.212 8.184h1.98v-8.46h-.972v7.476l.156.708h-.276l-4.224-8.184h-1.98V271zm8.669-4.236c0 2.472 1.476 4.356 3.96 4.356 2.16 0 3.576-1.296 3.828-3.396h-.984c-.192 1.62-1.188 2.556-2.844 2.556-1.968 0-2.976-1.464-2.976-3.516 0-2.04 1.008-3.504 2.976-3.504 1.656 0 2.652.924 2.844 2.544h.984c-.252-2.088-1.668-3.384-3.828-3.384-2.484 0-3.96 1.884-3.96 4.344zm15.166-4.224v3.864h-4.992v-3.864h-.984V271h.984v-3.756h4.992V271h.972v-8.46h-.972z"/><circle cx="455" cy="209" r="5"/><path d="M479.636 199.62h.984c0-2.52 1.116-3.36 2.676-3.36 1.284 0 2.016.684 2.016 1.992 0 3.096-4.692 3.912-5.556 4.032V204h6.54v-.84h-5.556l-.696.156v-.276c3.492-.552 6.252-2.028 6.252-4.776 0-1.848-1.224-2.844-3.024-2.844-2.028 0-3.636 1.152-3.636 4.2zm8.267 4.38h.984v-7.476l-.156-.708h.276l4.212 8.184h1.98v-8.46h-.972v7.476l.156.708h-.276l-4.224-8.184h-1.98V204zm11.606-8.46h-2.688V204h2.688c2.052 0 4.236-.588 4.236-4.236 0-3.636-2.184-4.224-4.236-4.224zm0 7.62h-1.704v-6.78h1.704c1.5 0 3.252.264 3.252 3.384 0 3.132-1.752 3.396-3.252 3.396zm9.851.84h.984v-7.476l-.156-.708h.276l4.212 8.184h1.98v-8.46h-.972v7.476l.156.708h-.276l-4.224-8.184h-1.98V204zm8.918 0h.984v-3.396l3.996-.24v-.852l-3.996.24v-3.372h4.56v-.84h-5.544V204zm13.547-8.46h-6.852v.84h2.952V204h.972v-7.62h2.928v-.84zM479.876 220h.984v-3.396h4.248V220h.984v-3.18c0-.444-.192-.636-.672-.636h-1.008v-.288c.912-.156 1.572-.72 1.572-1.992 0-1.896-1.284-2.364-3.3-2.364h-2.808V220zm.984-4.236v-3.384h1.824c1.44 0 2.316.132 2.316 1.692 0 1.548-.876 1.692-2.316 1.692h-1.824zm6.844 4.236h5.244v-.84h-4.26v-2.976h3.66v-.84h-3.66v-2.964h4.26v-.84h-5.244V220zm12.786 0h.972l-2.724-8.46h-2.016l-2.736 8.46h.984l1.056-3.312h3.396L500.49 220zm-4.188-4.152l1.284-4.032h.276l1.296 4.032h-2.856zm7.064 4.272l4.512-.12v-.84l-4.26.12v-7.74h-.984v7.86c0 .456.264.732.732.72zm9.768-.12h5.244v-.84h-4.26v-2.976h3.66v-.84h-3.66v-2.964h4.26v-.84h-5.244V220zm13.247-2.136c0-1.764-1.92-2.22-3.576-2.736-1.392-.432-2.136-.756-2.136-1.644 0-.936.852-1.224 2.016-1.224 1.296 0 2.364.624 2.364 2.064h.984c0-1.38-.852-2.904-3.348-2.904-2.088 0-3 .792-3 2.088 0 1.5 1.212 1.956 2.88 2.46 1.344.396 2.832.66 2.832 1.944 0 1.02-.828 1.368-2.268 1.368-1.776 0-2.844-.444-2.844-2.448h-.984c0 1.98.876 3.288 3.828 3.288 2.496 0 3.252-.996 3.252-2.256zm7.038-6.324h-6.852v.84h2.952V220h.972v-7.62h2.928v-.84zm5.895 8.46h.972l-2.724-8.46h-2.016L532.81 220h.984l1.056-3.312h3.396l1.068 3.312zm-4.188-4.152l1.284-4.032h.276l1.296 4.032h-2.856zm11.383-4.308h-6.852v.84h2.952V220h.972v-7.62h2.928v-.84zm1.172 8.46h5.244v-.84h-4.26v-2.976h3.66v-.84h-3.66v-2.964h4.26v-.84h-5.244V220zm17.466-2.136c0-1.764-1.92-2.22-3.576-2.736-1.392-.432-2.136-.756-2.136-1.644 0-.936.852-1.224 2.016-1.224 1.296 0 2.364.624 2.364 2.064h.984c0-1.38-.852-2.904-3.348-2.904-2.088 0-3 .792-3 2.088 0 1.5 1.212 1.956 2.88 2.46 1.344.396 2.832.66 2.832 1.944 0 1.02-.828 1.368-2.268 1.368-1.776 0-2.844-.444-2.844-2.448h-.984c0 1.98.876 3.288 3.828 3.288 2.496 0 3.252-.996 3.252-2.256zM572.42 220h.972l-2.724-8.46h-2.016l-2.736 8.46h.984l1.056-3.312h3.396L572.42 220zm-4.188-4.152l1.284-4.032h.276l1.296 4.032h-2.856zm7.064 4.272l4.512-.12v-.84l-4.26.12v-7.74h-.984v7.86c0 .456.264.732.732.72zm5.783-.12h5.244v-.84h-4.26v-2.976h3.66v-.84h-3.66v-2.964h4.26v-.84h-5.244V220z"/><circle cx="455" cy="166" r="5"/><path d="M486.596 166.864c0-1.764-1.92-2.22-3.576-2.736-1.392-.432-2.136-.756-2.136-1.644 0-.936.852-1.224 2.016-1.224 1.296 0 2.364.624 2.364 2.064h.984c0-1.38-.852-2.904-3.348-2.904-2.088 0-3 .792-3 2.088 0 1.5 1.212 1.956 2.88 2.46 1.344.396 2.832.66 2.832 1.944 0 1.02-.828 1.368-2.268 1.368-1.776 0-2.844-.444-2.844-2.448h-.984c0 1.98.876 3.288 3.828 3.288 2.496 0 3.252-.996 3.252-2.256zm7.038-6.324h-6.852v.84h2.952V169h.972v-7.62h2.928v-.84zm5.895 8.46h.972l-2.724-8.46h-2.016l-2.736 8.46h.984l1.056-3.312h3.396l1.068 3.312zm-4.188-4.152l1.284-4.032h.276l1.296 4.032h-2.856zm13.1-4.308h-1.416l-4.368 3.6v-3.6h-.984V169h.984v-3.6l4.368 3.6h1.416l-5.16-4.236 5.16-4.224zm5.903.84v-.84h-4.764v.84h1.896v6.78h-1.896v.84h4.764v-.84h-1.884v-6.78h1.884zm1.497 7.62h.984v-7.476l-.156-.708h.276l4.212 8.184h1.98v-8.46h-.972v7.476l.156.708h-.276l-4.224-8.184h-1.98V169zm8.669-4.236c0 2.496 1.224 4.356 3.708 4.356 2.184 0 3.324-1.404 3.336-4.356h.276l-.156 1.08V169h.984v-3.852c0-.444-.228-.66-.72-.66h-4.176v.792h2.892c.036 2.028-.756 3-2.424 3-1.98 0-2.736-1.44-2.736-3.516 0-2.064 1.032-3.504 3.012-3.504 1.668 0 2.376.912 2.568 2.304h.984c-.252-1.848-1.428-3.144-3.552-3.144-2.448 0-3.996 1.86-3.996 4.344zm14.621 4.356l4.512-.12v-.84l-4.26.12v-7.74h-.984v7.86c0 .456.264.732.732.72zm11.808-.12h.972l-2.724-8.46h-2.016l-2.736 8.46h.984l1.056-3.312h3.396l1.068 3.312zm-4.188-4.152l1.284-4.032h.276l1.296 4.032h-2.856zm5.846 1.008c0 2.112 1.044 3.264 3.348 3.264 2.316 0 3.36-1.152 3.36-3.264v-5.316h-.984v5.16c0 1.716-.612 2.58-2.376 2.58s-2.364-.864-2.364-2.58v-5.16h-.984v5.316zm8.197 3.144h.984v-7.476l-.156-.708h.276L566.11 169h1.98v-8.46h-.972v7.476l.156.708h-.276l-4.224-8.184h-1.98V169zm8.669-4.236c0 2.472 1.476 4.356 3.96 4.356 2.16 0 3.576-1.296 3.828-3.396h-.984c-.192 1.62-1.188 2.556-2.844 2.556-1.968 0-2.976-1.464-2.976-3.516 0-2.04 1.008-3.504 2.976-3.504 1.656 0 2.652.924 2.844 2.544h.984c-.252-2.088-1.668-3.384-3.828-3.384-2.484 0-3.96 1.884-3.96 4.344zm15.166-4.224v3.864h-4.992v-3.864h-.984V169h.984v-3.756h4.992V169h.972v-8.46h-.972z"/><circle cx="455" cy="416" r="16"/><path d="M635.672 464.36c1.44-.78 2.796-2.196 2.796-4.596 0-2.58-1.752-4.344-4.428-4.344-2.688 0-4.44 1.884-4.44 4.344 0 2.592 1.752 4.236 3.744 4.236 1.14 0 1.692-.252 2.124-.612l.264.432c-1.296.732-3.036.84-4.248.96l.156 1.56c3-.432 5.028-.516 8.34-.06v-1.68c-1.908-.252-3.096-.336-4.308-.24zm-1.632-1.92c-1.596 0-2.52-1.044-2.52-2.676 0-1.62.924-2.664 2.52-2.664s2.508 1.044 2.508 2.664c0 1.632-.912 2.676-2.508 2.676zm5.34-1.668c0 2.544 1.776 3.348 3.948 3.348 2.028 0 3.636-.744 3.636-2.412 0-1.5-1.044-1.68-2.124-1.824v-.48c1.08-.18 2.004-.42 2.004-1.692 0-1.548-1.488-2.292-3.516-2.292-2.172 0-3.828.804-3.828 2.988h1.92c0-.972.408-1.308 1.908-1.308 1.236 0 1.596.288 1.596.852 0 .552-.324.852-1.044.852h-1.176v1.68h1.176c.72 0 1.164.312 1.164.984 0 .684-.48.972-1.716.972-1.5 0-2.028-.336-2.028-1.668h-1.92zm12.026-1.356h1.92c0-1.62.648-2.316 2.1-2.316 1.092 0 1.452.54 1.452 1.08 0 1.872-4.488 2.34-5.352 2.46V464h7.272v-1.68h-5.592l-1.2.36v-.48c3.96-.732 6.792-1.092 6.792-3.936 0-1.848-1.392-2.844-3.396-2.844-2.22 0-3.996 1.152-3.996 3.996zm12.435-3.996c-2.568 0-4.08 1.764-4.08 4.344 0 2.592 1.512 4.356 4.08 4.356 2.556 0 4.068-1.764 4.068-4.356 0-2.58-1.512-4.344-4.068-4.344zm0 1.68c.468 0 .876.108 1.2.324l-3.228 3.444a4.35 4.35 0 0 1-.132-1.104c0-1.74.804-2.664 2.16-2.664zm0 5.34c-.468 0-.876-.108-1.212-.336l3.228-3.444a4.42 4.42 0 0 1 .132 1.104c0 1.752-.792 2.676-2.148 2.676zm5.026-3.024h1.92c0-1.62.648-2.316 2.1-2.316 1.092 0 1.452.54 1.452 1.08 0 1.872-4.488 2.34-5.352 2.46V464h7.272v-1.68h-5.592l-1.2.36v-.48c3.96-.732 6.792-1.092 6.792-3.936 0-1.848-1.392-2.844-3.396-2.844-2.22 0-3.996 1.152-3.996 3.996zm8.355 0h1.92c0-1.62.648-2.316 2.1-2.316 1.092 0 1.452.54 1.452 1.08 0 1.872-4.488 2.34-5.352 2.46V464h7.272v-1.68h-5.592l-1.2.36v-.48c3.96-.732 6.792-1.092 6.792-3.936 0-1.848-1.392-2.844-3.396-2.844-2.22 0-3.996 1.152-3.996 3.996z"/></g><path stroke="url(#E)" d="M656.5 112v292"/><g fill="#fff"><circle cx="657" cy="362" r="5"/><path d="M681.756 352.764c0 2.472 1.464 4.356 3.96 4.356 2.472 0 3.936-1.884 3.936-4.356 0-2.46-1.464-4.344-3.936-4.344-2.496 0-3.96 1.884-3.96 4.344zm.984 0c0-2.016.972-3.504 2.976-3.504 1.992 0 2.952 1.488 2.952 3.504 0 2.028-.96 3.516-2.952 3.516-2.004 0-2.976-1.488-2.976-3.516zm10.688-4.224h-2.376V357h.984v-2.916h1.392c2.136 0 3.492-.564 3.492-2.784 0-2.208-1.356-2.76-3.492-2.76zm.012 4.704h-1.404v-3.864h1.404c1.44 0 2.496.264 2.496 1.92 0 1.68-1.056 1.944-2.496 1.944zM698.2 357h5.244v-.84h-4.26v-2.976h3.66v-.84h-3.66v-2.964h4.26v-.84H698.2V357zm6.645 0h.984v-7.476l-.156-.708h.276l4.212 8.184h1.98v-8.46h-.972v7.476l.156.708h-.276l-4.224-8.184h-1.98V357zm12.563-8.46l2.736 8.46h2.016l2.724-8.46h-.972l-2.628 8.184h-.276l-2.616-8.184h-.984zm8.531 8.46h.984v-3.396h4.248V357h.984v-3.18c0-.444-.192-.636-.672-.636h-1.008v-.288c.912-.156 1.572-.72 1.572-1.992 0-1.896-1.284-2.364-3.3-2.364h-2.808V357zm.984-4.236v-3.384h1.824c1.44 0 2.315.132 2.315 1.692 0 1.548-.875 1.692-2.315 1.692h-1.824zm13.657-4.224h-2.688V357h2.688c2.052 0 4.236-.588 4.236-4.236 0-3.636-2.184-4.224-4.236-4.224zm0 7.62h-1.704v-6.78h1.704c1.5 0 3.252.264 3.252 3.384 0 3.132-1.752 3.396-3.252 3.396zm5.632.84h5.244v-.84h-4.26v-2.976h3.66v-.84h-3.66v-2.964h4.26v-.84h-5.244V357zm6.282-8.46l2.736 8.46h2.016l2.724-8.46h-.972l-2.628 8.184h-.276l-2.616-8.184h-.984zm8.53 8.46h5.244v-.84h-4.26v-2.976h3.66v-.84h-3.66v-2.964h4.26v-.84h-5.244V357zm7.377.12l4.512-.12v-.84l-4.26.12v-7.74h-.984v7.86c0 .456.264.732.732.72zm4.703-4.356c0 2.472 1.464 4.356 3.96 4.356 2.472 0 3.936-1.884 3.936-4.356 0-2.46-1.464-4.344-3.936-4.344-2.496 0-3.96 1.884-3.96 4.344zm.984 0c0-2.016.972-3.504 2.976-3.504 1.992 0 2.952 1.488 2.952 3.504 0 2.028-.96 3.516-2.952 3.516-2.004 0-2.976-1.488-2.976-3.516zm10.687-4.224h-2.376V357h.984v-2.916h1.392c2.136 0 3.492-.564 3.492-2.784 0-2.208-1.356-2.76-3.492-2.76zm.012 4.704h-1.404v-3.864h1.404c1.44 0 2.496.264 2.496 1.92 0 1.68-1.056 1.944-2.496 1.944zm4.761 3.756h.984v-7.476l-.156-.708h.276l2.424 8.184h1.98l2.424-8.184h.288l-.168.708V357h.984v-8.46h-1.968l-2.412 8.184h-.276l-2.4-8.184h-1.98V357zm10.652 0h5.244v-.84h-4.26v-2.976h3.66v-.84h-3.66v-2.964h4.26v-.84H800.2V357zm6.645 0h.984v-7.476l-.156-.708h.276l4.212 8.184h1.98v-8.46h-.972v7.476l.156.708h-.276l-4.224-8.184h-1.98V357zm15.316-8.46h-6.852v.84h2.952V357h.972v-7.62h2.928v-.84zM681.876 373h.984v-3.396l3.996-.24v-.852l-3.996.24v-3.372h4.56v-.84h-5.544V373zm6.243-4.236c0 2.472 1.464 4.356 3.96 4.356 2.472 0 3.936-1.884 3.936-4.356 0-2.46-1.464-4.344-3.936-4.344-2.496 0-3.96 1.884-3.96 4.344zm.984 0c0-2.016.972-3.504 2.976-3.504 1.992 0 2.952 1.488 2.952 3.504 0 2.028-.96 3.516-2.952 3.516-2.004 0-2.976-1.488-2.976-3.516zm8.312 4.236h.984v-3.396h4.248V373h.984v-3.18c0-.444-.192-.636-.672-.636h-1.008v-.288c.912-.156 1.572-.72 1.572-1.992 0-1.896-1.284-2.364-3.3-2.364h-2.808V373zm.984-4.236v-3.384h1.824c1.44 0 2.316.132 2.316 1.692 0 1.548-.876 1.692-2.316 1.692h-1.824zm10.849 0c0 2.472 1.464 4.356 3.96 4.356 2.472 0 3.936-1.884 3.936-4.356 0-2.46-1.464-4.344-3.936-4.344-2.496 0-3.96 1.884-3.96 4.344zm.984 0c0-2.016.972-3.504 2.976-3.504 1.992 0 2.952 1.488 2.952 3.504 0 2.028-.96 3.516-2.952 3.516-2.004 0-2.976-1.488-2.976-3.516zm7.586-4.224l1.812 8.46h2.004l1.728-8.184h.276l1.74 8.184h2.004l1.8-8.46h-.936l-1.728 8.184h-.288l-1.716-8.184h-2.028l-1.716 8.184h-.288l-1.728-8.184h-.936zm12.398 8.46h.984v-7.476l-.156-.708h.276l4.212 8.184h1.98v-8.46h-.972v7.476l.156.708h-.276l-4.224-8.184h-1.98V373zm8.918 0h5.244v-.84h-4.26v-2.976h3.66v-.84h-3.66v-2.964h4.26v-.84h-5.244V373zm6.644 0h.984v-3.396h4.248V373h.984v-3.18c0-.444-.192-.636-.672-.636h-1.008v-.288c.912-.156 1.572-.72 1.572-1.992 0-1.896-1.284-2.364-3.3-2.364h-2.808V373zm.984-4.236v-3.384h1.824c1.44 0 2.316.132 2.316 1.692 0 1.548-.876 1.692-2.316 1.692h-1.824zm13.564 2.1c0-1.764-1.92-2.22-3.576-2.736-1.392-.432-2.136-.756-2.136-1.644 0-.936.852-1.224 2.016-1.224 1.296 0 2.364.624 2.364 2.064h.984c0-1.38-.852-2.904-3.348-2.904-2.088 0-3 .792-3 2.088 0 1.5 1.212 1.956 2.88 2.46 1.344.396 2.832.66 2.832 1.944 0 1.02-.828 1.368-2.268 1.368-1.776 0-2.844-.444-2.844-2.448h-.984c0 1.98.876 3.288 3.828 3.288 2.496 0 3.252-.996 3.252-2.256z"/><circle cx="657" cy="306" r="5"/><path d="M682.608 293.12l4.512-.12v-.84l-4.26.12v-7.74h-.984v7.86c0 .456.264.732.732.72zm11.808-.12h.972l-2.724-8.46h-2.016l-2.736 8.46h.984l1.056-3.312h3.396l1.068 3.312zm-4.188-4.152l1.284-4.032h.276l1.296 4.032h-2.856zm5.846 1.008c0 2.112 1.044 3.264 3.348 3.264 2.316 0 3.36-1.152 3.36-3.264v-5.316h-.984v5.16c0 1.716-.612 2.58-2.376 2.58s-2.364-.864-2.364-2.58v-5.16h-.984v5.316zm8.197 3.144h.984v-7.476l-.156-.708h.276l4.212 8.184h1.98v-8.46h-.972v7.476l.156.708h-.276l-4.224-8.184h-1.98V293zm8.669-4.236c0 2.472 1.476 4.356 3.96 4.356 2.16 0 3.576-1.296 3.828-3.396h-.984c-.192 1.62-1.188 2.556-2.844 2.556-1.968 0-2.976-1.464-2.976-3.516 0-2.04 1.008-3.504 2.976-3.504 1.656 0 2.652.924 2.844 2.544h.984c-.252-2.088-1.668-3.384-3.828-3.384-2.484 0-3.96 1.884-3.96 4.344zm15.166-4.224v3.864h-4.992v-3.864h-.984V293h.984v-3.756h4.992V293h.972v-8.46h-.972zm6.595 4.224c0 2.472 1.464 4.356 3.96 4.356 2.472 0 3.936-1.884 3.936-4.356 0-2.46-1.464-4.344-3.936-4.344-2.496 0-3.96 1.884-3.96 4.344zm.984 0c0-2.016.972-3.504 2.976-3.504 1.992 0 2.952 1.488 2.952 3.504 0 2.028-.96 3.516-2.952 3.516-2.004 0-2.976-1.488-2.976-3.516zm8.312 4.236h.984v-3.396l3.996-.24v-.852l-3.996.24v-3.372h4.56v-.84h-5.544V293zm11.039 0h2.784c2.052 0 3.336-.54 3.336-2.244 0-1.512-1.02-2.04-2.316-2.064v-.288c.876-.06 1.692-.564 1.692-1.788 0-1.668-1.188-2.076-3.252-2.076h-2.244V293zm.984-4.824v-2.796h1.296c1.38 0 2.232.084 2.232 1.392 0 1.2-.852 1.404-2.232 1.404h-1.296zm0 3.984v-3.144h1.836c1.44 0 2.316.336 2.316 1.572 0 1.332-.876 1.572-2.316 1.572h-1.836zm6.504.84h.984v-3.396h4.248V293h.984v-3.18c0-.444-.192-.636-.672-.636h-1.008v-.288c.912-.156 1.572-.72 1.572-1.992 0-1.896-1.284-2.364-3.3-2.364h-2.808V293zm.984-4.236v-3.384h1.824c1.44 0 2.316.132 2.316 1.692 0 1.548-.876 1.692-2.316 1.692h-1.824zM776.494 293h.972l-2.724-8.46h-2.016L769.99 293h.984l1.056-3.312h3.396l1.068 3.312zm-4.188-4.152l1.284-4.032h.276l1.296 4.032h-2.856zm6.332 4.152h.984v-7.476l-.156-.708h.276l4.212 8.184h1.98v-8.46h-.972v7.476l.156.708h-.276l-4.224-8.184h-1.98V293zm11.606-8.46h-2.688V293h2.688c2.052 0 4.236-.588 4.236-4.236 0-3.636-2.184-4.224-4.236-4.224zm0 7.62h-1.704v-6.78h1.704c1.5 0 3.252.264 3.252 3.384 0 3.132-1.752 3.396-3.252 3.396zm-101.648 14.704c0-1.764-1.92-2.22-3.576-2.736-1.392-.432-2.136-.756-2.136-1.644 0-.936.852-1.224 2.016-1.224 1.296 0 2.364.624 2.364 2.064h.984c0-1.38-.852-2.904-3.348-2.904-2.088 0-3 .792-3 2.088 0 1.5 1.212 1.956 2.88 2.46 1.344.396 2.832.66 2.832 1.944 0 1.02-.828 1.368-2.268 1.368-1.776 0-2.844-.444-2.844-2.448h-.984c0 1.98.876 3.288 3.828 3.288 2.496 0 3.252-.996 3.252-2.256zm7.038-6.324h-6.852v.84h2.952V309h.972v-7.62h2.928v-.84zm.149 4.224c0 2.472 1.464 4.356 3.96 4.356 2.472 0 3.936-1.884 3.936-4.356 0-2.46-1.464-4.344-3.936-4.344-2.496 0-3.96 1.884-3.96 4.344zm.984 0c0-2.016.972-3.504 2.976-3.504 1.992 0 2.952 1.488 2.952 3.504 0 2.028-.96 3.516-2.952 3.516-2.004 0-2.976-1.488-2.976-3.516zm8.312 4.236h.984v-3.396h4.248V309h.984v-3.18c0-.444-.192-.636-.672-.636h-1.008v-.288c.912-.156 1.572-.72 1.572-1.992 0-1.896-1.284-2.364-3.3-2.364h-2.808V309zm.984-4.236v-3.384h1.824c1.44 0 2.316.132 2.316 1.692 0 1.548-.876 1.692-2.316 1.692h-1.824zm6.844 4.236h5.244v-.84h-4.26v-2.976h3.66v-.84h-3.66v-2.964h4.26v-.84h-5.244V309zm13.248-2.136c0-1.764-1.92-2.22-3.576-2.736-1.392-.432-2.136-.756-2.136-1.644 0-.936.852-1.224 2.016-1.224 1.296 0 2.364.624 2.364 2.064h.984c0-1.38-.852-2.904-3.348-2.904-2.088 0-3 .792-3 2.088 0 1.5 1.212 1.956 2.88 2.46 1.344.396 2.832.66 2.832 1.944 0 1.02-.828 1.368-2.268 1.368-1.776 0-2.844-.444-2.844-2.448h-.984c0 1.98.876 3.288 3.828 3.288 2.496 0 3.252-.996 3.252-2.256zM737.552 309h.972l-2.724-8.46h-2.016l-2.736 8.46h.984l1.056-3.312h3.396l1.068 3.312zm-4.188-4.152l1.284-4.032h.276l1.296 4.032h-2.856zm6.332 4.152h.984v-7.476l-.156-.708h.276l4.212 8.184h1.98v-8.46h-.972v7.476l.156.708h-.276l-4.224-8.184h-1.98V309zm11.606-8.46h-2.688V309h2.688c2.052 0 4.236-.588 4.236-4.236 0-3.636-2.184-4.224-4.236-4.224zm0 7.62h-1.704v-6.78h1.704c1.5 0 3.252.264 3.252 3.384 0 3.132-1.752 3.396-3.252 3.396zM681.876 325h5.244v-.84h-4.26v-2.976h3.66v-.84h-3.66v-2.964h4.26v-.84h-5.244V325zm6.282 0h1.128l2.592-3.648 2.604 3.648h1.116l-2.94-4.056v-.36l2.94-4.044h-1.116l-2.604 3.636-2.592-3.636h-1.128l2.94 4.044v.36l-2.94 4.056zm10.953-8.46h-2.376V325h.984v-2.916h1.392c2.136 0 3.492-.564 3.492-2.784 0-2.208-1.356-2.76-3.492-2.76zm.012 4.704h-1.404v-3.864h1.404c1.44 0 2.496.264 2.496 1.92 0 1.68-1.056 1.944-2.496 1.944zm4.761 3.756h5.244v-.84h-4.26v-2.976h3.66v-.84h-3.66v-2.964h4.26v-.84h-5.244V325zm6.644 0h.984v-3.396h4.248V325h.984v-3.18c0-.444-.192-.636-.672-.636h-1.008v-.288c.912-.156 1.572-.72 1.572-1.992 0-1.896-1.284-2.364-3.3-2.364h-2.808V325zm.984-4.236v-3.384h1.824c1.44 0 2.316.132 2.316 1.692 0 1.548-.876 1.692-2.316 1.692h-1.824zm11.395-3.384v-.84h-4.764v.84h1.896v6.78h-1.896v.84h4.764v-.84h-1.884v-6.78h1.884zm1.496 7.62h5.244v-.84h-4.26v-2.976h3.66v-.84h-3.66v-2.964h4.26v-.84h-5.244V325zm6.645 0h.984v-7.476l-.156-.708h.276l4.212 8.184h1.98v-8.46h-.972v7.476l.156.708h-.276l-4.224-8.184h-1.98V325zm15.316-8.46h-6.852v.84h2.952V325h.972v-7.62h2.928v-.84zm6.051.84v-.84h-4.764v.84h1.896v6.78h-1.896v.84h4.764v-.84h-1.884v-6.78h1.884zm7.661 7.62h.972l-2.724-8.46h-2.016l-2.736 8.46h.984l1.056-3.312h3.396l1.068 3.312zm-4.188-4.152l1.284-4.032h.276l1.296 4.032h-2.856zm7.064 4.272l4.512-.12v-.84l-4.26.12v-7.74h-.984v7.86c0 .456.264.732.732.72zm9.648-4.356c0 2.472 1.476 4.356 3.96 4.356 2.16 0 3.576-1.296 3.828-3.396h-.984c-.192 1.62-1.188 2.556-2.844 2.556-1.968 0-2.976-1.464-2.976-3.516 0-2.04 1.008-3.504 2.976-3.504 1.656 0 2.652.924 2.844 2.544h.984c-.252-2.088-1.668-3.384-3.828-3.384-2.484 0-3.96 1.884-3.96 4.344zm9.19 4.236h5.244v-.84h-4.26v-2.976h3.66v-.84h-3.66v-2.964h4.26v-.84h-5.244V325zm6.645 0h.984v-7.476l-.156-.708h.276l4.212 8.184h1.98v-8.46h-.972v7.476l.156.708h-.276l-4.224-8.184h-1.98V325zm15.316-8.46h-6.852v.84h2.952V325h.972v-7.62h2.928v-.84zm1.172 8.46h5.244v-.84h-4.26v-2.976h3.66v-.84h-3.66v-2.964h4.26v-.84h-5.244V325zm6.644 0h.984v-3.396h4.248V325h.984v-3.18c0-.444-.192-.636-.672-.636h-1.008v-.288c.912-.156 1.572-.72 1.572-1.992 0-1.896-1.284-2.364-3.3-2.364h-2.808V325zm.984-4.236v-3.384h1.824c1.44 0 2.316.132 2.316 1.692 0 1.548-.876 1.692-2.316 1.692h-1.824zm13.565 2.1c0-1.764-1.92-2.22-3.576-2.736-1.392-.432-2.136-.756-2.136-1.644 0-.936.852-1.224 2.016-1.224 1.296 0 2.364.624 2.364 2.064h.984c0-1.38-.852-2.904-3.348-2.904-2.088 0-3 .792-3 2.088 0 1.5 1.212 1.956 2.88 2.46 1.344.396 2.832.66 2.832 1.944 0 1.02-.828 1.368-2.268 1.368-1.776 0-2.844-.444-2.844-2.448h-.984c0 1.98.876 3.288 3.828 3.288 2.496 0 3.252-.996 3.252-2.256z"/><circle cx="657" cy="234" r="5"/><path d="M688.596 210.864c0-1.764-1.92-2.22-3.576-2.736-1.392-.432-2.136-.756-2.136-1.644 0-.936.852-1.224 2.016-1.224 1.296 0 2.364.624 2.364 2.064h.984c0-1.38-.852-2.904-3.348-2.904-2.088 0-3 .792-3 2.088 0 1.5 1.212 1.956 2.88 2.46 1.344.396 2.832.66 2.832 1.944 0 1.02-.828 1.368-2.268 1.368-1.776 0-2.844-.444-2.844-2.448h-.984c0 1.98.876 3.288 3.828 3.288 2.496 0 3.252-.996 3.252-2.256zm.906-2.1c0 2.472 1.476 4.356 3.96 4.356 2.16 0 3.576-1.296 3.828-3.396h-.984c-.192 1.62-1.188 2.556-2.844 2.556-1.968 0-2.976-1.464-2.976-3.516 0-2.04 1.008-3.504 2.976-3.504 1.656 0 2.652.924 2.844 2.544h.984c-.252-2.088-1.668-3.384-3.828-3.384-2.484 0-3.96 1.884-3.96 4.344zM704.33 213h.972l-2.724-8.46h-2.016l-2.736 8.46h.984l1.056-3.312h3.396L704.33 213zm-4.188-4.152l1.284-4.032h.276l1.296 4.032h-2.856zm7.064 4.272l4.512-.12v-.84l-4.26.12v-7.74h-.984v7.86c0 .456.264.732.732.72zm10.427-7.74v-.84h-4.764v.84h1.896v6.78h-1.896v.84h4.764v-.84h-1.884v-6.78h1.884zm1.497 7.62h.984v-7.476l-.156-.708h.276l4.212 8.184h1.98v-8.46h-.972v7.476l.156.708h-.276l-4.224-8.184h-1.98V213zm8.669-4.236c0 2.496 1.224 4.356 3.708 4.356 2.184 0 3.324-1.404 3.336-4.356h.276l-.156 1.08V213h.984v-3.852c0-.444-.228-.66-.72-.66h-4.176v.792h2.892c.036 2.028-.756 3-2.424 3-1.98 0-2.736-1.44-2.736-3.516 0-2.064 1.032-3.504 3.012-3.504 1.668 0 2.376.912 2.568 2.304h.984c-.252-1.848-1.428-3.144-3.552-3.144-2.448 0-3.996 1.86-3.996 4.344zm13.77 0c0 2.472 1.464 4.356 3.96 4.356 2.472 0 3.936-1.884 3.936-4.356 0-2.46-1.464-4.344-3.936-4.344-2.496 0-3.96 1.884-3.96 4.344zm.984 0c0-2.016.972-3.504 2.976-3.504 1.992 0 2.952 1.488 2.952 3.504 0 2.028-.96 3.516-2.952 3.516-2.004 0-2.976-1.488-2.976-3.516zm8.311 4.236h.984v-3.396l3.996-.24v-.852l-3.996.24v-3.372h4.56v-.84h-5.544V213zm-68.988 16h5.244v-.84h-4.26v-2.976h3.66v-.84h-3.66v-2.964h4.26v-.84h-5.244V229zm6.645 0h.984v-7.476l-.156-.708h.276l4.212 8.184h1.98v-8.46h-.972v7.476l.156.708h-.276l-4.224-8.184h-1.98V229zm8.669-4.236c0 2.496 1.224 4.356 3.708 4.356 2.184 0 3.324-1.404 3.336-4.356h.276l-.156 1.08V229h.984v-3.852c0-.444-.228-.66-.72-.66h-4.176v.792h2.892c.036 2.028-.756 3-2.424 3-1.98 0-2.736-1.44-2.736-3.516 0-2.064 1.032-3.504 3.012-3.504 1.668 0 2.376.912 2.568 2.304h.984c-.252-1.848-1.428-3.144-3.552-3.144-2.448 0-3.996 1.86-3.996 4.344zM713.002 229h.972l-2.724-8.46h-2.016l-2.736 8.46h.984l1.056-3.312h3.396l1.068 3.312zm-4.188-4.152l1.284-4.032h.276l1.296 4.032h-2.856zm5.614-.084c0 2.496 1.224 4.356 3.708 4.356 2.184 0 3.324-1.404 3.336-4.356h.276l-.156 1.08V229h.984v-3.852c0-.444-.228-.66-.72-.66h-4.176v.792h2.892c.036 2.028-.756 3-2.424 3-1.98 0-2.736-1.44-2.736-3.516 0-2.064 1.032-3.504 3.012-3.504 1.668 0 2.376.912 2.568 2.304h.984c-.252-1.848-1.428-3.144-3.552-3.144-2.448 0-3.996 1.86-3.996 4.344zm9.518 4.236h5.244v-.84h-4.26v-2.976h3.66v-.84h-3.66v-2.964h4.26v-.84h-5.244V229zm6.645 0h.984v-7.476l-.156-.708h.276l2.424 8.184h1.98l2.424-8.184h.288l-.168.708V229h.984v-8.46h-1.968l-2.412 8.184h-.276l-2.4-8.184h-1.98V229zm10.652 0h5.244v-.84h-4.26v-2.976h3.66v-.84h-3.66v-2.964h4.26v-.84h-5.244V229zm6.645 0h.984v-7.476l-.156-.708h.276l4.212 8.184h1.98v-8.46h-.972v7.476l.156.708h-.276l-4.224-8.184h-1.98V229zm15.316-8.46h-6.852v.84h2.952V229h.972v-7.62h2.928v-.84zm.787 6.504l-.936 3.468.876.24.936-3.48-.876-.228zm13.229-6.504h-6.852v.84h2.952V229h.972v-7.62h2.928v-.84zm1.172 8.46h.984v-3.396h4.248V229h.984v-3.18c0-.444-.192-.636-.672-.636h-1.008v-.288c.912-.156 1.572-.72 1.572-1.992 0-1.896-1.284-2.364-3.3-2.364h-2.808V229zm.984-4.236v-3.384h1.824c1.44 0 2.316.132 2.316 1.692 0 1.548-.876 1.692-2.316 1.692h-1.824zM792.361 229h.972l-2.724-8.46h-2.016l-2.736 8.46h.984l1.056-3.312h3.396l1.068 3.312zm-4.188-4.152l1.284-4.032h.276l1.296 4.032h-2.856zm9.02-4.308h-2.688V229h2.688c2.052 0 4.236-.588 4.236-4.236 0-3.636-2.184-4.224-4.236-4.224zm0 7.62h-1.704v-6.78h1.704c1.5 0 3.252.264 3.252 3.384 0 3.132-1.752 3.396-3.252 3.396zm9.585-6.78v-.84h-4.764v.84h1.896v6.78h-1.896v.84h4.764v-.84h-1.884v-6.78h1.884zm1.496 7.62h.984v-7.476l-.156-.708h.276L813.59 229h1.98v-8.46h-.972v7.476l.156.708h-.276l-4.224-8.184h-1.98V229zm8.67-4.236c0 2.496 1.224 4.356 3.708 4.356 2.184 0 3.324-1.404 3.336-4.356h.276l-.156 1.08V229h.984v-3.852c0-.444-.228-.66-.72-.66h-4.176v.792h2.892c.036 2.028-.756 3-2.424 3-1.98 0-2.736-1.44-2.736-3.516 0-2.064 1.032-3.504 3.012-3.504 1.668 0 2.376.912 2.568 2.304h.984c-.252-1.848-1.428-3.144-3.552-3.144-2.448 0-3.996 1.86-3.996 4.344zm10.117 2.28l-.936 3.468.876.24.936-3.48-.876-.228zm-138.465 15.82c0-1.764-1.92-2.22-3.576-2.736-1.392-.432-2.136-.756-2.136-1.644 0-.936.852-1.224 2.016-1.224 1.296 0 2.364.624 2.364 2.064h.984c0-1.38-.852-2.904-3.348-2.904-2.088 0-3 .792-3 2.088 0 1.5 1.212 1.956 2.88 2.46 1.344.396 2.832.66 2.832 1.944 0 1.02-.828 1.368-2.268 1.368-1.776 0-2.844-.444-2.844-2.448h-.984c0 1.98.876 3.288 3.828 3.288 2.496 0 3.252-.996 3.252-2.256zm7.342-6.324v3.864h-4.992v-3.864h-.984V245h.984v-3.756h4.992V245h.972v-8.46h-.972zm2.341 4.224c0 2.472 1.464 4.356 3.96 4.356 2.472 0 3.936-1.884 3.936-4.356 0-2.46-1.464-4.344-3.936-4.344-2.496 0-3.96 1.884-3.96 4.344zm.984 0c0-2.016.972-3.504 2.976-3.504 1.992 0 2.952 1.488 2.952 3.504 0 2.028-.96 3.516-2.952 3.516-2.004 0-2.976-1.488-2.976-3.516zm10.688-4.224h-2.376V245h.984v-2.916h1.392c2.136 0 3.492-.564 3.492-2.784 0-2.208-1.356-2.76-3.492-2.76zm.012 4.704h-1.404v-3.864h1.404c1.44 0 2.496.264 2.496 1.92 0 1.68-1.056 1.944-2.496 1.944zm7.137-4.704h-2.376V245h.984v-2.916h1.392c2.136 0 3.492-.564 3.492-2.784 0-2.208-1.356-2.76-3.492-2.76zm.012 4.704h-1.404v-3.864h1.404c1.44 0 2.496.264 2.496 1.92 0 1.68-1.056 1.944-2.496 1.944zm9.041-3.864v-.84h-4.764v.84h1.896v6.78h-1.896v.84h4.764v-.84h-1.884v-6.78h1.884zm1.496 7.62h.984v-7.476l-.156-.708h.276l4.212 8.184h1.98v-8.46h-.972v7.476l.156.708h-.276l-4.224-8.184h-1.98V245zm8.67-4.236c0 2.496 1.224 4.356 3.708 4.356 2.184 0 3.324-1.404 3.336-4.356h.276l-.156 1.08V245h.984v-3.852c0-.444-.228-.66-.72-.66h-4.176v.792h2.892c.036 2.028-.756 3-2.424 3-1.98 0-2.736-1.44-2.736-3.516 0-2.064 1.032-3.504 3.012-3.504 1.668 0 2.376.912 2.568 2.304h.984c-.252-1.848-1.428-3.144-3.552-3.144-2.448 0-3.996 1.86-3.996 4.344zM687.9 261h.972l-2.724-8.46h-2.016l-2.736 8.46h.984l1.056-3.312h3.396L687.9 261zm-4.188-4.152l1.284-4.032h.276l1.296 4.032h-2.856zm6.332 4.152h.984v-7.476l-.156-.708h.276L695.36 261h1.98v-8.46h-.972v7.476l.156.708h-.276l-4.224-8.184h-1.98V261zm11.606-8.46h-2.688V261h2.688c2.052 0 4.236-.588 4.236-4.236 0-3.636-2.184-4.224-4.236-4.224zm0 7.62h-1.704v-6.78h1.704c1.5 0 3.252.264 3.252 3.384 0 3.132-1.752 3.396-3.252 3.396zm16.571-1.296c0-1.764-1.92-2.22-3.576-2.736-1.392-.432-2.136-.756-2.136-1.644 0-.936.852-1.224 2.016-1.224 1.296 0 2.364.624 2.364 2.064h.984c0-1.38-.852-2.904-3.348-2.904-2.088 0-3 .792-3 2.088 0 1.5 1.212 1.956 2.88 2.46 1.344.396 2.832.66 2.832 1.944 0 1.02-.828 1.368-2.268 1.368-1.776 0-2.844-.444-2.844-2.448h-.984c0 1.98.876 3.288 3.828 3.288 2.496 0 3.252-.996 3.252-2.256zm7.038-6.324h-6.852v.84h2.952V261h.972v-7.62h2.928v-.84zm5.895 8.46h.972l-2.724-8.46h-2.016L724.65 261h.984l1.056-3.312h3.396l1.068 3.312zm-4.188-4.152l1.284-4.032h.276l1.296 4.032h-2.856zm13.1-4.308h-1.416l-4.368 3.6v-3.6h-.984V261h.984v-3.6l4.368 3.6h1.416l-5.16-4.236 5.16-4.224zm5.903.84v-.84h-4.764v.84h1.896v6.78h-1.896v.84h4.764v-.84h-1.884v-6.78h1.884zm1.497 7.62h.984v-7.476l-.156-.708h.276l4.212 8.184h1.98v-8.46h-.972v7.476l.156.708h-.276l-4.224-8.184h-1.98V261zm8.669-4.236c0 2.496 1.224 4.356 3.708 4.356 2.184 0 3.324-1.404 3.336-4.356h.276l-.156 1.08V261h.984v-3.852c0-.444-.228-.66-.72-.66h-4.176v.792h2.892c.036 2.028-.756 3-2.424 3-1.98 0-2.736-1.44-2.736-3.516 0-2.064 1.032-3.504 3.012-3.504 1.668 0 2.376.912 2.568 2.304h.984c-.252-1.848-1.428-3.144-3.552-3.144-2.448 0-3.996 1.86-3.996 4.344z"/><circle cx="657" cy="416" r="16"/></g><path stroke="url(#F)" d="M820 417.5H79"/><path d="M49.92 77h5.12v-7.936h8.832V77h5.12v-7.2c0-1.76-.96-2.72-2.72-2.72h-3.296V65.8c2.72-.32 5.728-1.344 5.728-5.056 0-5.056-4.672-6.304-10.048-6.304H49.92V77zm5.12-12.416V58.92h3.616c3.04 0 4.928 0 4.928 2.848 0 2.816-1.888 2.816-4.928 2.816H55.04zm16.185 1.12c0 6.592 4.352 11.616 11.52 11.616 7.136 0 11.488-5.024 11.488-11.616 0-6.56-4.352-11.584-11.488-11.584-7.168 0-11.52 5.024-11.52 11.584zm5.12 0c0-4.32 2.144-7.104 6.4-7.104s6.368 2.784 6.368 7.104c0 4.352-2.112 7.136-6.368 7.136s-6.4-2.784-6.4-7.136zM112.978 77h5.184l-6.528-22.56h-10.56L94.578 77h5.184l2.017-7.232h9.152L112.978 77zm-9.952-11.712l2.688-9.568h1.28l2.688 9.568h-6.656zM128.74 54.44h-8.32V77h8.32c6.016 0 12.288-1.568 12.288-11.296 0-9.696-6.272-11.264-12.288-11.264zm0 18.08h-3.2v-13.6h3.2c4 0 7.168.32 7.168 6.784 0 6.496-3.168 6.816-7.168 6.816zM143.92 77h5.12V58.92l-.96-3.2h1.28L152.976 77h9.92l3.616-21.28h1.28l-.96 3.2V77h5.12V54.44h-10.08l-3.296 21.28h-1.28L154 54.44h-10.08V77zm48.683 0h5.184l-6.528-22.56h-10.56L174.203 77h5.184l2.016-7.232h9.152L192.603 77zm-9.952-11.712l2.688-9.568h1.28l2.688 9.568h-6.656zm25.49-10.848h-8.096V77h5.12v-6.72h2.976c5.696 0 10.048-1.088 10.048-7.936 0-6.816-4.352-7.904-10.048-7.904zm.32 11.36h-3.296v-6.88h3.296c3.04 0 4.608.32 4.608 3.424 0 3.136-1.568 3.456-4.608 3.456z" fill="#fff"/><defs><filter id="A" x="-44" y="-44" width="968" height="609" filterUnits="userSpaceOnUse" color-interpolation-filters="sRGB"><feFlood flood-opacity="0"/><feGaussianBlur in="BackgroundImage" stdDeviation="2"/><feComposite in2="SourceAlpha" operator="in" result="B"/><feColorMatrix in="SourceAlpha" values="0 0 0 0 0 0 0 0 0 0 0 0 0 0 0 0 0 0 127 0" result="C"/><feOffset/><feGaussianBlur stdDeviation="22"/><feComposite in2="C" operator="out"/><feColorMatrix values="0 0 0 0 0.803922 0 0 0 0 0.941176 0 0 0 0 1 0 0 0 0.2 0"/><feBlend in2="B"/><feBlend in="SourceGraphic"/></filter><linearGradient id="B" x1="65" y1="379.971" x2="65" y2="135.049" xlink:href="#G"><stop stop-color="#fff"/><stop offset="1" stop-color="#fff" stop-opacity="0"/></linearGradient><linearGradient id="C" x1="265" y1="378.971" x2="265" y2="134.049" xlink:href="#G"><stop stop-color="#fff"/><stop offset="1" stop-color="#fff" stop-opacity="0"/></linearGradient><linearGradient id="D" x1="453" y1="378.971" x2="453" y2="134.049" xlink:href="#G"><stop stop-color="#fff"/><stop offset="1" stop-color="#fff" stop-opacity="0"/></linearGradient><linearGradient id="E" x1="655" y1="378.971" x2="655" y2="134.049" xlink:href="#G"><stop stop-color="#fff"/><stop offset="1" stop-color="#fff" stop-opacity="0"/></linearGradient><linearGradient id="F" x1="458" y1="417" x2="849" y2="417" xlink:href="#G"><stop stop-color="#fff"/><stop offset="1" stop-color="#fff" stop-opacity="0"/></linearGradient><linearGradient id="G" gradientUnits="userSpaceOnUse"/></defs></svg>