<svg width="91" height="91" viewBox="0 0 91 91" fill="none" xmlns="http://www.w3.org/2000/svg">
<path d="M45.1795 9.12443L46.1236 9.03947L42.7385 1.06101L40.7805 1.23723L38.8627 9.69295L39.8184 9.60693L40.5545 6.29793L43.8528 6.00109L45.1795 9.12443ZM40.7491 5.45798L41.6437 1.42976L41.9118 1.40564L43.5229 5.20833L40.7491 5.45798Z" fill="white"/>
<path d="M56.8727 10.8192L57.7519 11.2015L60.6563 4.52148L60.7919 3.82826L61.0386 3.93548L61.6227 12.8844L63.3919 13.6536L66.6785 6.0944L65.81 5.71678L62.9056 12.3968L62.77 13.09L62.5234 12.9828L61.9285 4.02918L60.1593 3.25997L56.8727 10.8192Z" fill="white"/>
<path d="M65.3081 14.8733L69.4335 17.8782L69.9149 17.2174L66.5636 14.7763L68.2689 12.4351L71.1482 14.5324L71.6295 13.8716L68.7502 11.7743L70.4487 9.44257L73.8 11.8836L74.2813 11.2228L70.1559 8.21789L65.3081 14.8733Z" fill="white"/>
<path d="M77.4602 13.8411L72.0869 20.3015L73.2895 21.8319L80.5762 18.2405L80.7419 18.4512L75.5362 24.6911L76.7387 26.2214L84.2795 22.5194L83.7178 21.8046L76.431 25.396L76.2582 25.1761L81.4783 18.9546L80.2613 17.4059L72.9818 21.0065L72.809 20.7865L78.0218 14.5559L77.4602 13.8411Z" fill="white"/>
<path d="M81.482 37.9659L81.6077 38.9132L84.8774 38.4793L85.4202 42.5692L82.1505 43.0031L82.2763 43.9505L85.3379 43.5442C85.7654 43.4874 85.9257 43.2781 85.8644 42.8159L85.7356 41.8454L86.0129 41.8086C86.2796 42.6668 86.9069 43.2301 88.1316 43.0676C89.957 42.8253 90.2436 41.5293 89.986 39.5883L89.6272 36.8849L81.482 37.9659ZM85.6861 38.372L88.9441 37.9396L89.1772 39.6957C89.3612 41.0821 89.3461 41.9424 87.8441 42.1417C86.3537 42.3395 86.1032 41.5145 85.9192 40.1281L85.6861 38.372Z" fill="white"/>
<path d="M82.2794 46.2173L81.8886 51.2954L82.702 51.358L83.0195 47.2328L85.9013 47.4545L85.6286 50.9987L86.442 51.0613L86.7147 47.5171L89.585 47.738L89.2675 51.8632L90.081 51.9258L90.4717 46.8477L82.2794 46.2173Z" fill="white"/>
<path d="M79.8219 59.0663L79.5457 59.969L88.1768 59.8428L88.7496 57.9705L81.6698 53.0258L81.3903 53.9396L84.1662 55.8614L83.2013 59.0154L79.8219 59.0663ZM84.8679 56.3564L88.2478 58.6945L88.1694 58.9508L84.0565 59.0089L84.8679 56.3564Z" fill="white"/>
<path d="M78.2434 62.1657L76.2039 66.0461L76.9157 66.4447L78.8356 62.7779L85.3944 66.451L85.8614 65.6172L79.2009 61.8871C78.8145 61.6707 78.4553 61.7635 78.2434 62.1657Z" fill="white"/>
<path d="M77.8485 75.7918L78.4735 76.3162L81.4476 72.7717L80.8226 72.2473L79.639 73.658L74.5946 69.4253L75.7783 68.0146L75.1533 67.4902L72.1792 71.0347L72.8042 71.5591L73.9803 70.1574L79.0247 74.3901L77.8485 75.7918Z" fill="white"/>
<path d="M70.6983 83.0437L75.9309 78.9319L75.4269 78.2905L73.1725 80.0619L68.5999 74.2428L67.8576 74.8261L72.4302 80.6452L70.1942 82.4022L70.6983 83.0437Z" fill="white"/>
<path d="M62.3599 87.3957L62.748 82.792L62.4675 82.1898L62.7105 82.0766L62.991 82.6788L66.7653 85.3434L67.695 84.9102L62.815 81.5007L61.5206 78.7223L60.6649 79.1209L61.9593 81.8994L61.4302 87.8289L62.3599 87.3957Z" fill="white"/>
<path d="M42.7262 89.6795L42.7129 90.4952L47.3392 90.5703L47.3525 89.7546L45.5113 89.7247L45.6182 83.1407L47.4594 83.1706L47.4726 82.3549L42.8463 82.2798L42.8331 83.0955L44.6626 83.1252L44.5557 89.7092L42.7262 89.6795Z" fill="white"/>
<path d="M34.2404 82.8298C33.883 84.5054 35.6143 85.3275 37.0828 86.1531C38.3175 86.8454 38.9585 87.3039 38.7786 88.1474C38.589 89.0365 37.7214 89.1374 36.6157 88.9016C35.3847 88.6391 34.4967 87.83 34.7884 86.4622L33.8537 86.2628C33.5742 87.5736 34.0747 89.1938 36.4455 89.6995C38.4289 90.1225 39.4556 89.555 39.7181 88.324C40.022 86.8992 38.9632 86.2205 37.4809 85.4038C36.2845 84.7554 34.9246 84.2032 35.1848 82.9836C35.3914 82.0147 36.2484 81.8519 37.6162 82.1436C39.3031 82.5034 40.2276 83.1415 39.8216 85.0451L40.7563 85.2444C41.1574 83.3637 40.5903 81.9438 37.7864 81.3458C35.4155 80.8401 34.4956 81.633 34.2404 82.8298Z" fill="white"/>
<path d="M22.2149 79.1863C23.7754 77.3616 23.8753 75.0392 22.0418 73.4711C20.4474 72.1075 18.5841 72.1702 17.0724 73.5611L17.7987 74.1823C18.9631 73.1078 20.2892 73.0457 21.5115 74.0911C22.9642 75.3335 22.784 77.0504 21.4886 78.5651C20.2007 80.0709 18.5325 80.5152 17.0798 79.2728C15.8575 78.2273 15.7056 76.9165 16.5866 75.5996L15.8603 74.9784C14.7281 76.6787 14.9552 78.5292 16.5495 79.8928C18.383 81.4609 20.6619 81.0021 22.2149 79.1863Z" fill="white"/>
<path d="M14.3811 71.9885C16.3582 70.6265 17.0586 68.4176 15.6834 66.4212C14.3215 64.444 12.008 64.311 10.0308 65.673C8.06319 67.0283 7.36289 69.2372 8.72482 71.2144C10.1 73.2108 12.4135 73.3438 14.3811 71.9885ZM13.8389 71.2014C12.2265 72.3121 10.5008 72.3545 9.39669 70.7516C8.2992 69.1584 8.96045 67.5707 10.5729 66.46C12.195 65.3427 13.914 65.2907 15.0115 66.884C16.1156 68.4869 15.461 70.0841 13.8389 71.2014Z" fill="white"/>
<path d="M12.3615 61.3896L12.0629 60.4817L5.16565 62.7508L4.55981 63.1096L4.47604 62.8549L11.2908 58.1347L10.6898 56.308L2.40369 56.5555L2.31628 56.2898L3.02046 56.23L9.91769 53.9609L9.61904 53.0531L1.81398 55.6208L2.41129 57.4364L10.6938 57.1778L10.7775 57.4324L3.95554 62.1305L4.55648 63.9572L12.3615 61.3896Z" fill="white"/>
<path d="M1.68736 46.6957L0.871536 46.7528L1.19542 51.3797L2.01125 51.3226L1.88235 49.4811L8.46725 49.0202L8.59616 50.8616L9.41198 50.8045L9.0881 46.1776L8.27227 46.2347L8.40036 48.0645L1.81545 48.5255L1.68736 46.6957Z" fill="white"/>
<path d="M9.03924 44.0289L9.17654 43.0831L1.99098 42.04L1.28872 42.0912L1.32723 41.8259L9.78099 38.9194L10.0573 37.0164L1.92593 35.8359L1.79031 36.7702L8.97587 37.8133L9.67813 37.7622L9.63962 38.0274L1.18418 40.9454L0.907912 42.8485L9.03924 44.0289Z" fill="white"/>
<path d="M6.81719 33.2711C9.03963 34.2392 11.1706 33.8709 12.1341 31.6591C12.9813 29.7145 12.1733 28.1548 9.54953 26.9991L9.65659 26.7533L10.5577 27.3111L13.3678 28.5353L13.7495 27.6592L10.3197 26.165C9.92435 25.9928 9.64358 26.112 9.45274 26.5501L7.83288 30.2684L8.53808 30.5756L9.65987 28.0006C11.4796 28.7552 12.0378 29.8374 11.3908 31.3226C10.6228 33.0856 9.04735 33.2002 7.19888 32.3949C5.36109 31.5943 4.47922 30.1168 5.24726 28.3538C5.89427 26.8686 6.98095 26.592 8.29486 26.961L8.67655 26.0848C6.93334 25.5924 5.32321 26.1368 4.49932 28.028C3.54975 30.2077 4.60543 32.3075 6.81719 33.2711Z" fill="white"/>
<path d="M24.0241 15.8143C24.9603 15.8143 25.7193 15.0553 25.7193 14.1191C25.7193 13.1828 24.9603 12.4238 24.0241 12.4238C23.0878 12.4238 22.3289 13.1828 22.3289 14.1191C22.3289 15.0553 23.0878 15.8143 24.0241 15.8143Z" fill="white"/>
</svg>
